<?xml version="1.0" encoding="UTF-8"?>
<!DOCTYPE svg PUBLIC "-//W3C//DTD SVG 1.1//EN" "http://www.w3.org/Graphics/SVG/1.1/DTD/svg11.dtd">
<!-- Creator: CorelDRAW X7 -->
<svg xmlns="http://www.w3.org/2000/svg" xml:space="preserve" width="57mm" height="57mm" version="1.1" style="shape-rendering:geometricPrecision; text-rendering:geometricPrecision; image-rendering:optimizeQuality; fill-rule:evenodd; clip-rule:evenodd"
viewBox="0 0 5700 5700"
 xmlns:xlink="http://www.w3.org/1999/xlink">
 <defs>
  <style type="text/css">
   <![CDATA[
    .fil0 {fill:black}
    .fil5 {fill:#971418}
    .fil7 {fill:#DB7573}
    .fil1 {fill:#EA222A}
    .fil2 {fill:#F1AAAD}
    .fil3 {fill:#FFDBDE}
    .fil6 {fill:black;fill-rule:nonzero}
    .fil4 {fill:#FF7694;fill-rule:nonzero}
   ]]>
  </style>
 </defs>
 <g id="Layer_x0020_1">
  <metadata id="CorelCorpID_0Corel-Layer"/>
  <g id="_2455159368720">
   <path class="fil0" d="M2176 1393c-17,-56 -19,-128 -8,-184 29,-145 135,-238 270,-288 193,-71 410,-39 608,-9 203,31 589,76 776,-19 37,-19 73,-48 104,-77 44,-40 90,-91 125,-140 23,-31 63,-41 98,-26 35,16 53,53 45,90 -16,77 -44,150 -82,219 -117,208 -319,353 -533,449 -103,46 -232,90 -342,110 -242,49 -624,111 -866,35 -76,-23 -174,-76 -195,-160z"/>
   <path class="fil1" d="M2253 1371c0,0 53,254 968,69 0,0 589,-106 821,-520 33,-59 58,-125 74,-197 0,0 -58,80 -136,152 -37,35 -79,68 -122,89 -207,106 -603,60 -824,27 -203,-31 -398,-58 -568,5 -301,111 -213,375 -213,375z"/>
   <path class="fil2" d="M4964 4460c92,-88 169,-193 220,-319 0,0 -34,-128 -62,-209 -113,-321 -545,-1073 -2040,-641l-21 6c0,58 -95,105 -211,105 -116,0 -211,-47 -211,-105l-21 -6c-1495,-432 -1927,320 -2040,641 -28,81 -62,209 -62,209 108,266 335,441 560,555 850,432 3223,406 3888,-236z"/>
   <g>
    <path class="fil0" d="M1669 1464c178,-64 364,-112 550,-145 20,-4 4,-1 24,-4l0 71c-22,4 -8,1 -33,6 -150,28 -347,74 -555,151 -51,-42 -119,-96 -146,-113 -206,-131 -767,-440 -1321,-321 -176,610 42,1323 139,1590 15,43 62,155 90,226l-1 6 -3 15 0 1 -3 14 -1 1 -3 14 0 2 -3 13 0 3 -3 12 0 2 -1 8 -2 8 -2 10 0 4 -2 12 -1 4 -2 12 -1 4 -1 10 -2 9 -1 8 -1 6 -2 11 0 5 -2 11 -1 6 -1 11 0 3 -2 14 0 3c-34,283 -17,608 120,930 5,11 10,23 16,35 1,3 2,6 4,9 108,266 335,441 560,555 850,432 3223,406 3888,-236 92,-88 169,-193 220,-319 2,-3 3,-6 4,-9 20,-44 38,-87 53,-131l1 -2c2,-6 4,-11 6,-17l0 -2c2,-5 4,-10 6,-16l1 -3 5 -16 1 -2c17,-55 31,-109 42,-163l0 -2c1,-6 2,-11 3,-17l1 -1c2,-12 4,-24 6,-36l1 -2c2,-11 3,-23 5,-35l0 -1c7,-48 13,-95 16,-142l0 -2 1 -17 0 0c0,-6 1,-12 1,-18l0 0 1 -17 0 -2 0 -16 0 -1 1 -16 0 -2 0 -15 0 -5 0 -13 0 -3c0,-11 0,-22 0,-33 0,-6 0,-11 0,-17l0 0 -1 -17 0 -12 0 -6 -1 -15 0 -2 -1 -15 0 -2 -1 -13 0 -6 -1 -11 0 -6 -1 -12 -1 -4 -1 -13 0 -5 -1 -12 -1 -5 -1 -12 0 -4 -2 -12 -1 -8 -1 -9 0 -1 -2 -15 0 -1 -2 -16 0 -1 -2 -15 0 -2 -2 -14 -1 -2 -1 -6 -1 -12 -1 -3 -2 -12 -1 -7 -2 -10 -1 -6 -1 -9 -2 -8 -2 -10 0 -4 -3 -12 -1 -5 -2 -10 -1 -5 0 -3 -1 -6 -2 -9 0 0 -3 -14 -1 -1 -3 -15c7,-17 15,-40 23,-59 24,-63 53,-138 66,-174 97,-267 315,-980 139,-1590 -554,-119 -1115,190 -1321,321 -28,18 -85,65 -135,107 -1,1 -5,4 -8,7l-1 0c-336,-124 -643,-170 -769,-184 -39,-5 -62,2 -93,-20 -30,-22 -55,-56 41,-56 84,6 173,20 256,34 187,33 373,82 551,146 38,-32 80,-68 120,-93 169,-107 356,-198 546,-262 265,-89 552,-128 828,-68 26,5 45,23 53,49 147,511 38,1139 -141,1632 -21,59 -44,118 -67,176 -5,13 -10,26 -15,40 88,410 71,835 -104,1221l-3 8 0 0 0 0 0 0 0 0 -1 0 0 0 0 1 0 0 0 0 0 0 0 1c-54,130 -135,244 -236,341 -437,422 -1457,530 -2037,544 -361,10 -731,-8 -1089,-60 -275,-41 -594,-109 -843,-235 -255,-130 -482,-320 -593,-590l0 -1 0 0 0 0 0 0 0 -1 0 0 -1 0 0 0 0 0 0 0 0 0 -3 -8c-5,-11 -10,-23 -15,-35 -162,-379 -176,-795 -88,-1193 -28,-69 -58,-139 -83,-209 -179,-493 -288,-1121 -141,-1632 8,-26 27,-44 53,-49 276,-60 563,-21 828,68 190,64 377,155 546,262 40,25 83,60 122,93zm3670 1953c0,-11 0,-22 0,-33l0 33zm-2662 -179c19,12 31,32 32,55 7,9 29,19 38,22 32,12 69,17 103,17 34,0 71,-5 103,-17 9,-3 31,-13 38,-22 1,-23 13,-43 32,-55 24,17 38,37 38,59 0,58 -95,105 -211,105 -116,0 -211,-47 -211,-105 0,-22 14,-42 38,-59z"/>
   </g>
   <path class="fil1" d="M2482 1354c0,0 -389,27 -827,189 -51,-42 -119,-96 -146,-113 -206,-131 -767,-440 -1321,-321 -176,610 42,1323 139,1590 15,43 62,155 90,226l-1 6c-74,330 -97,751 80,1166 5,11 10,23 16,35 1,3 2,6 4,9 0,0 34,-128 62,-209 113,-321 545,-1073 2040,-641l21 6c0,-57 95,-104 211,-104 116,0 211,47 211,104l21 -6c1495,-432 1927,320 2040,641 28,81 62,209 62,209 2,-3 3,-6 4,-9 194,-426 172,-861 96,-1200 7,-17 15,-40 23,-59 24,-63 53,-138 66,-174 97,-267 315,-980 139,-1590 -554,-119 -1115,190 -1321,321 -28,18 -85,65 -135,107 -1,1 -5,4 -8,7l-1 0c-439,-163 -829,-190 -829,-190 0,0 -15,-2 -44,-5l-260 -112 -354 -97c4,80 -1,151 -11,207 -43,4 -67,7 -67,7zm2639 1087c-39,-86 -67,-135 -67,-135 -143,-238 -348,-418 -569,-553 54,-43 138,-109 184,-134 147,-80 397,-194 599,-170 40,329 -40,637 -92,791 -12,38 -33,120 -49,184 0,4 -3,11 -6,17zm-3904 -689c-222,135 -428,315 -571,554 0,0 -27,48 -66,132 -16,-66 -44,-160 -56,-198 -52,-154 -132,-462 -92,-791 202,-24 452,90 599,170 47,26 131,90 186,133z"/>
   <path class="fil0" d="M2850 3410c126,0 227,-50 227,-113 0,-62 -101,-113 -227,-113 -126,0 -227,51 -227,113 0,63 101,113 227,113z"/>
   <circle class="fil3" cx="1343" cy="3668" r="240"/>
   <circle class="fil3" cx="4307" cy="3668" r="240"/>
   <path class="fil4" d="M1349 3537c10,-10 26,-10 36,0 9,9 9,25 0,35l-137 137c-10,10 -26,10 -35,0 -10,-10 -10,-26 0,-36l136 -136z"/>
   <path class="fil4" d="M1437 3604c9,-10 25,-11 35,-2 10,10 11,25 1,35l-147 161c-10,11 -25,11 -36,2 -10,-9 -10,-25 -1,-35l148 -161z"/>
   <path class="fil4" d="M4314 3537c10,-10 26,-10 35,0 10,9 10,25 0,35l-136 137c-10,10 -26,10 -36,0 -10,-10 -10,-26 0,-36l137 -136z"/>
   <path class="fil4" d="M4401 3604c10,-10 26,-11 36,-2 10,10 10,25 1,35l-148 161c-9,11 -25,11 -35,2 -10,-9 -11,-25 -1,-35l147 -161z"/>
   <path class="fil5" d="M5268 1449c40,329 -40,637 -92,791 -14,42 -38,139 -54,205 -39,-88 -68,-139 -68,-139 -143,-239 -349,-419 -571,-554 54,-43 138,-107 186,-133 147,-80 397,-194 599,-170z"/>
   <path class="fil5" d="M432 1449c-40,329 40,637 92,791 14,42 38,139 54,205 39,-88 68,-139 68,-139 143,-239 349,-419 571,-554 -54,-43 -138,-107 -186,-133 -147,-80 -397,-194 -599,-170z"/>
   <path class="fil6" d="M1640 1470c15,-12 37,-10 50,5 12,14 10,37 -5,49 -15,12 -53,30 -102,54 -50,23 -112,53 -170,85 -48,26 -93,59 -128,85 -26,18 -47,33 -63,42 -16,9 -38,3 -47,-14 -9,-17 -3,-38 14,-47 13,-7 32,-21 55,-38 37,-27 84,-61 135,-89 61,-34 124,-64 174,-87 45,-22 79,-38 87,-45z"/>
   <path class="fil6" d="M550 2424c11,-15 33,-19 48,-7 16,11 19,33 8,49 -1,0 -87,116 -142,258 -6,16 -12,32 -17,48 -13,46 -24,209 -63,199 -20,1 -36,-15 -36,-34 -1,-40 5,-81 14,-121 9,-40 22,-79 37,-117 59,-151 150,-275 151,-275z"/>
   <g>
    <path class="fil6" d="M4061 1470l-45 54c-14,-13 -16,-35 -4,-49 13,-15 35,-17 49,-5zm228 193l0 0 -11 -6 -10 -6 -11 -5 -11 -6 -11 -6 -10 -5 -11 -5 -11 -6 -10 -5 -11 -5 -10 -5 -10 -5 -10 -5 -10 -4 -9 -5 -10 -4 -9 -4 -9 -5 -8 -4 -9 -4 -7 -3 -8 -4 -7 -4 -7 -3 -7 -3 -6 -4 -6 -3 -5 -3 -5 -3 -5 -3 -4 -3 -5 -3 45 -54 1 1 2 1 2 2 4 2 4 2 5 3 5 2 6 3 7 4 6 3 8 3 8 4 8 4 8 4 9 4 9 4 10 5 9 5 10 4 10 5 11 5 10 5 11 5 10 6 11 5 11 5 11 6 11 6 12 6 11 6 11 6 11 6 0 0 -34 61zm190 127l-4 -3 -4 -2 -5 -3 -4 -3 -5 -3 -4 -3 -5 -3 -5 -4 -5 -4 -6 -3 -5 -4 -6 -4 -5 -4 -6 -4 -6 -5 -6 -4 -6 -4 -6 -5 -7 -4 -6 -5 -7 -4 -6 -5 -7 -5 -7 -4 -7 -5 -7 -4 -7 -5 -7 -4 -7 -5 -8 -4 -7 -4 -7 -4 34 -61 8 4 8 5 8 5 7 4 8 5 8 5 7 5 8 4 7 5 7 5 7 5 7 5 6 4 7 5 7 5 6 4 6 5 6 4 6 4 5 4 6 4 5 4 5 3 5 4 5 3 4 3 4 3 4 3 4 2 3 2 3 2 3 2 -34 61zm0 0l34 -61c17,9 23,30 14,47 -10,17 -31,23 -48,14z"/>
   </g>
   <path class="fil6" d="M5150 2424c-12,-15 -34,-19 -49,-7 -16,11 -19,33 -7,49 0,0 86,116 141,258 6,16 13,32 17,48 13,46 24,209 64,199 19,1 35,-15 35,-34 1,-40 -4,-81 -14,-121 -9,-40 -22,-79 -37,-117 -58,-151 -150,-275 -150,-275z"/>
   <path class="fil7" d="M2961 3934c54,-53 89,-149 109,-226 -77,-8 -147,-37 -209,-84 -52,51 -113,89 -182,111 11,60 46,114 88,159 62,64 116,117 194,40z"/>
   <path class="fil0" d="M2873 3977c-213,13 -390,-61 -397,-167 -7,-106 160,-203 372,-216 213,-14 391,61 398,167 6,105 -161,202 -373,216z"/>
   <path class="fil0" d="M2329 3167c260,-118 410,-265 477,-344l88 0c67,79 217,226 477,344 464,211 902,199 1367,20 143,-55 283,-116 437,-213 8,-5 46,-26 82,-46 155,-87 174,-135 135,-162l-325 0 -45 0 -1915 0 -257 0 -312 0 -1860 0 -45 0 -325 0c-39,27 -20,75 135,162 36,20 74,41 82,46 154,97 294,158 437,213 465,179 903,191 1367,-20z"/>
  </g>
 </g>
</svg>
