<?xml version="1.0" encoding="UTF-8"?>
<!DOCTYPE svg PUBLIC "-//W3C//DTD SVG 1.1//EN" "http://www.w3.org/Graphics/SVG/1.1/DTD/svg11.dtd">
<!-- Creator: CorelDRAW X7 -->
<svg xmlns="http://www.w3.org/2000/svg" xml:space="preserve" width="57mm" height="57mm" version="1.1" style="shape-rendering:geometricPrecision; text-rendering:geometricPrecision; image-rendering:optimizeQuality; fill-rule:evenodd; clip-rule:evenodd"
viewBox="0 0 5700 5700"
 xmlns:xlink="http://www.w3.org/1999/xlink">
 <defs>
  <style type="text/css">
   <![CDATA[
    .str1 {stroke:black;stroke-width:70;stroke-linecap:round;stroke-linejoin:round}
    .str0 {stroke:black;stroke-width:70;stroke-linecap:round;stroke-linejoin:round}
    .fil7 {fill:none}
    .fil2 {fill:black}
    .fil11 {fill:#523E6B}
    .fil5 {fill:#783C78}
    .fil12 {fill:#A2A2A2}
    .fil9 {fill:#A4A2A4}
    .fil1 {fill:#BD6FBD}
    .fil8 {fill:#DB7573}
    .fil0 {fill:#FFBDFF}
    .fil3 {fill:#FFDBDE}
    .fil10 {fill:white}
    .fil6 {fill:black;fill-rule:nonzero}
    .fil4 {fill:#FF7694;fill-rule:nonzero}
   ]]>
  </style>
 </defs>
 <g id="Layer_x0020_1">
  <metadata id="CorelCorpID_0Corel-Layer"/>
  <g id="_2455335532080">
   <g>
    <path class="fil0" d="M4964 4851c92,-88 169,-193 220,-318 0,0 -34,-128 -62,-209 -113,-321 -545,-1074 -2040,-641l-21 6c0,58 -95,105 -211,105 -116,0 -211,-47 -211,-105l-21 -6c-1495,-433 -1927,320 -2040,641 -28,81 -62,209 -62,209 108,265 335,441 560,555 850,431 3223,405 3888,-237z"/>
    <path class="fil1" d="M1644 1926c-11,-9 -11,-9 -23,-19 -43,-35 -90,-72 -112,-85 -206,-132 -767,-441 -1321,-322 -176,610 42,1323 139,1590 15,43 62,155 90,226l-1 7c-74,329 -97,751 80,1165 5,12 10,24 16,35 1,4 2,7 4,10 0,0 34,-128 62,-209 113,-321 545,-1074 2040,-641l21 6c0,-58 95,-105 211,-105 116,0 211,47 211,105l21 -6c1495,-433 1927,320 2040,641 28,81 62,209 62,209 2,-3 3,-6 4,-10 194,-425 172,-861 96,-1199 7,-17 15,-41 23,-60 24,-63 53,-138 66,-174 97,-267 315,-980 139,-1590 -554,-119 -1115,190 -1321,322 -28,17 -85,64 -135,106 -1,1 -5,5 -8,8l-1 0c-267,-108 -538,-165 -804,-189 -129,-12 -256,-23 -382,-24 -94,0 -188,4 -281,12 -118,9 -239,10 -357,32 -139,27 -283,58 -425,101 -50,15 -103,41 -154,58zm3477 907c-39,-86 -67,-135 -67,-135 -143,-239 -348,-418 -569,-553 54,-44 138,-109 184,-134 147,-81 397,-194 599,-171 40,330 -40,638 -92,792 -12,37 -33,120 -49,184 0,3 -3,10 -6,17zm-3904 -689c-222,135 -428,315 -571,554 0,0 -27,48 -66,132 -16,-66 -44,-161 -56,-198 -52,-154 -132,-462 -92,-792 202,-23 452,90 599,171 47,25 131,90 186,133z"/>
    <path class="fil2" d="M2850 3802c126,0 227,-51 227,-113 0,-63 -101,-113 -227,-113 -126,0 -227,50 -227,113 0,62 101,113 227,113z"/>
    <circle class="fil3" cx="1343" cy="4059" r="240"/>
    <circle class="fil3" cx="4307" cy="4059" r="240"/>
    <path class="fil4" d="M1349 3928c10,-10 26,-10 36,0 9,10 9,26 0,36l-137 136c-10,10 -26,10 -35,0 -10,-9 -10,-25 0,-35l136 -137z"/>
    <path class="fil4" d="M1437 3995c9,-10 25,-11 35,-1 10,9 11,25 1,35l-147 161c-10,10 -25,11 -36,1 -10,-9 -10,-25 -1,-35l148 -161z"/>
    <path class="fil4" d="M4314 3928c10,-10 26,-10 35,0 10,10 10,26 0,36l-136 136c-10,10 -26,10 -36,0 -10,-9 -10,-25 0,-35l137 -137z"/>
    <path class="fil4" d="M4401 3995c10,-10 26,-11 36,-1 10,9 10,25 1,35l-148 161c-9,10 -25,11 -35,1 -10,-9 -11,-25 -1,-35l147 -161z"/>
    <path class="fil5" d="M5268 1840c40,330 -40,638 -92,792 -14,41 -38,138 -54,204 -39,-88 -68,-138 -68,-138 -143,-240 -349,-419 -571,-554 54,-43 138,-107 186,-133 147,-81 397,-194 599,-171z"/>
    <path class="fil5" d="M432 1840c-40,330 40,638 92,792 14,41 38,138 54,204 39,-88 68,-138 68,-138 143,-240 349,-419 571,-554 -54,-43 -138,-107 -186,-133 -147,-81 -397,-194 -599,-171z"/>
    <path class="fil6" d="M1640 1862c15,-13 37,-11 50,4 12,15 10,37 -5,49 -15,13 -53,31 -102,54 -50,24 -112,53 -170,85 -48,27 -93,59 -128,85 -26,18 -47,34 -63,42 -16,10 -38,3 -47,-13 -9,-17 -3,-39 14,-48 13,-7 32,-21 55,-38 37,-26 84,-60 135,-89 61,-34 124,-63 174,-87 45,-21 79,-37 87,-44z"/>
    <path class="fil6" d="M550 2816c11,-16 33,-19 48,-8 16,12 19,34 8,49 -1,0 -87,117 -142,259 -6,15 -12,31 -17,47 -13,47 -24,210 -63,200 -20,0 -36,-15 -36,-34 -1,-41 5,-82 14,-122 9,-39 22,-79 37,-116 59,-151 150,-275 151,-275z"/>
    <path class="fil7 str0" d="M4039 1889c24,20 152,71 267,135 82,46 155,107 190,127"/>
    <path class="fil6" d="M5150 2816c-12,-16 -34,-19 -49,-8 -16,12 -19,34 -7,49 0,0 86,117 141,259 6,15 13,31 17,47 13,47 24,210 64,200 19,0 35,-15 35,-34 1,-41 -4,-82 -14,-122 -9,-39 -22,-79 -37,-116 -58,-151 -150,-275 -150,-275z"/>
    <path class="fil8" d="M2961 4325c54,-53 89,-149 109,-226 -77,-8 -147,-37 -209,-83 -52,51 -113,88 -182,110 11,61 46,115 88,159 62,65 116,117 194,40z"/>
    <g>
     <path class="fil2" d="M1669 1855c178,-63 364,-111 550,-144 25,-5 50,-9 75,-13 31,-5 61,-9 91,-13 114,-14 310,-29 420,-31 224,-6 468,19 677,56 187,33 373,81 551,146 38,-33 80,-68 120,-93 169,-108 356,-199 546,-262 265,-89 552,-128 828,-69 26,6 45,24 53,49 147,511 38,1140 -141,1633 -21,59 -44,117 -67,176 -5,13 -10,26 -15,39 88,411 71,835 -104,1222l-3 7 0 0 0 0 0 1 0 0 -1 0 0 0 0 0 0 0 0 0 0 0 0 2c-54,130 -135,243 -236,341 -437,422 -1457,529 -2037,544 -361,9 -731,-8 -1089,-61 -275,-40 -594,-109 -843,-235 -255,-129 -482,-319 -593,-590l0 -1 0 0 0 0 0 0 0 0 0 0 -1 0 0 0 0 -1 0 0 0 0 -3 -7c-5,-12 -10,-24 -15,-35 -162,-379 -176,-795 -88,-1194 -28,-69 -58,-138 -83,-208 -179,-493 -288,-1122 -141,-1633 8,-25 27,-43 53,-49 276,-59 563,-20 828,69 190,63 377,154 546,262 40,25 83,60 122,92zm813 -109c0,0 -389,27 -827,189 -51,-42 -119,-96 -146,-113 -206,-132 -767,-441 -1321,-322 -176,610 42,1323 139,1590 15,43 62,155 90,226l-1 7 -3 15 0 0 -3 14 -1 2 -3 13 0 3 -3 13 0 3 -3 12 0 2 -1 7 -2 9 -2 9 0 5 -2 11 -1 5 -2 12 -1 4 -1 9 -2 9 -1 8 -1 7 -2 10 0 6 -2 10 -1 6 -1 11 0 4 -2 13 0 3c-34,284 -17,609 120,930 5,12 10,24 16,35 1,4 2,7 4,10 108,265 335,441 560,555 850,431 3223,405 3888,-237 92,-88 169,-193 220,-318 2,-3 3,-6 4,-10 20,-43 38,-87 53,-130l1 -3c2,-5 4,-11 6,-16l0 -2c2,-6 4,-11 6,-16l1 -4 5 -15 1 -3c17,-54 31,-109 42,-163l0 -2c1,-5 2,-11 3,-17l1 -1c2,-12 4,-23 6,-35l1 -2c2,-12 3,-23 5,-35l0 -1c7,-48 13,-95 16,-142l0 -2 1 -17 0 -1c0,-6 1,-12 1,-17l0 -1 1 -16 0 -2 0 -16 0 -2 1 -16 0 -2 0 -15 0 -4 0 -14 0 -3c0,-11 0,-22 0,-32 0,-6 0,-12 0,-17l0 -1 -1 -17 0 -11 0 -7 -1 -14 0 -2 -1 -15 0 -3 -1 -12 0 -6 -1 -12 0 -5 -1 -13 -1 -4 -1 -13 0 -4 -1 -13 -1 -4 -1 -13 0 -4 -2 -12 -1 -7 -1 -10 0 0 -2 -16 0 -1 -2 -16 0 0 -2 -16 0 -2 -2 -14 -1 -1 -1 -6 -1 -12 -1 -4 -2 -12 -1 -6 -2 -10 -1 -7 -1 -9 -2 -7 -2 -10 0 -5 -3 -12 -1 -5 -2 -10 -1 -4 0 -4 -1 -6 -2 -8 0 -1 -3 -13 -1 -2 -3 -14c7,-17 15,-41 23,-60 24,-63 53,-138 66,-174 97,-267 315,-980 139,-1590 -554,-119 -1115,190 -1321,322 -28,17 -85,64 -135,106 -1,1 -5,5 -8,8l-1 0c-305,-114 -586,-161 -729,-180 -63,-8 -100,-10 -100,-10 -290,-31 -453,-28 -736,0zm2857 2062c0,-11 0,-22 0,-32l0 32zm-2662 -179c19,12 31,32 32,55 7,9 29,19 38,23 32,12 69,17 103,17 34,0 71,-5 103,-17 9,-4 31,-14 38,-23 1,-23 13,-43 32,-55 24,17 38,38 38,60 0,58 -95,105 -211,105 -116,0 -211,-47 -211,-105 0,-22 14,-43 38,-60z"/>
    </g>
    <g>
     <path class="fil2" d="M2591 4144c-45,5 -97,4 -139,-7 -5,-1 -9,-4 -12,-9 -3,-5 -4,-10 -3,-15l12 -49c3,-10 14,-17 24,-14 129,30 266,-27 350,-125l17 -19c4,-4 8,-6 14,-7 5,0 10,2 15,5l18 17c67,60 148,94 238,91 36,-1 78,-9 111,-23 10,-5 22,0 26,10l21 45c2,5 2,10 0,15 -2,5 -5,9 -10,11 -32,15 -74,25 -110,29 -32,136 -113,346 -273,355 -48,2 -63,-4 -101,-32 -92,-66 -176,-164 -198,-278zm88 -18c11,61 46,115 88,159 62,65 116,117 194,40 54,-53 89,-149 109,-226 -77,-8 -147,-37 -209,-83 -52,51 -113,88 -182,110z"/>
     <path class="fil8" d="M2961 4325c54,-53 89,-149 109,-226 -77,-8 -147,-37 -209,-83 -52,51 -113,88 -182,110 11,61 46,115 88,159 62,65 116,117 194,40z"/>
    </g>
   </g>
   <circle class="fil2" cx="3890" cy="3310" r="443"/>
   <circle class="fil9" cx="3890" cy="3310" r="388"/>
   <path class="fil10" d="M3671 3302l-143 145c14,39 48,90 72,121l525 -566c-28,-20 -73,-44 -107,-55l-347 355z"/>
   <path class="fil10" d="M4234 3130c-15,-24 -27,-48 -46,-69l-511 576c30,21 45,26 81,38l476 -545z"/>
   <path class="fil6" d="M1506 3401c-6,11 -16,19 -26,22l0 0c-11,4 -24,4 -35,-2 -11,-6 -19,-15 -22,-26l0 0c-4,-11 -3,-23 2,-34 2,-3 20,-40 55,-80 78,-87 284,-181 518,27 9,8 14,19 15,30 1,12 -3,24 -11,33 -8,9 -20,14 -31,15 -11,1 -23,-3 -32,-11 -177,-157 -340,-91 -395,-29 -24,26 -36,50 -38,54l0 1 0 0z"/>
   <g id="_2455078878096">
    <g>
     <path class="fil11 str1" d="M2173 1261c236,120 769,318 1337,50 31,-268 106,-605 287,-838 0,0 -1030,-518 -1894,31 182,216 250,506 270,757z"/>
     <path class="fil12 str1" d="M3510 1311c-568,268 -1101,70 -1337,-50 14,175 4,330 -5,426 488,150 867,174 1321,-31 0,-78 4,-202 21,-345z"/>
    </g>
    <path class="fil11" d="M2850 2052c419,-7 788,-83 1019,-199 27,-63 84,-231 -46,-274 -103,-34 -170,6 -256,47 -21,9 -43,20 -67,31 -235,105 -426,150 -650,146 -208,3 -387,-35 -598,-124 -17,-7 -34,-15 -51,-22 -97,-44 -149,-88 -254,-88 -217,1 -147,212 -116,284 231,116 600,192 1019,199z"/>
    <path class="fil11" d="M2850 2052c419,-6 788,-83 1019,-198 27,-64 84,-232 -46,-275 -103,-34 -170,6 -256,47 -21,9 -43,20 -67,31 -235,105 -426,150 -650,146 -208,4 -387,-34 -598,-124 -17,-7 -34,-14 -51,-22 -97,-44 -149,-88 -254,-88 -217,1 -147,212 -116,285 231,115 600,192 1019,198z"/>
    <path class="fil6" d="M2850 2017c203,-3 395,-23 565,-56 168,-33 314,-78 427,-133 3,-7 6,-16 9,-26 12,-34 22,-77 18,-114 -2,-31 -15,-58 -48,-72 -2,-1 -5,-2 -9,-3 -81,-27 -139,1 -209,34l-21 10c-12,6 -22,11 -33,16 -9,4 -20,9 -35,16l0 0c-119,53 -228,92 -335,116 -108,24 -214,35 -329,33 -106,2 -205,-7 -305,-28 -99,-20 -199,-53 -307,-99 -10,-4 -19,-8 -26,-11 -11,-5 -20,-8 -26,-11 -23,-11 -45,-22 -66,-33 -57,-29 -102,-52 -173,-52 -29,0 -51,5 -68,12 -19,8 -31,20 -38,34 -8,15 -11,34 -11,54 0,44 16,93 28,124 113,55 259,100 427,133 170,33 362,53 565,56zm578 13c-173,33 -369,54 -578,57l0 0c-209,-3 -405,-24 -578,-57 -180,-35 -337,-85 -457,-145l-11 -6 -5 -12c-15,-35 -39,-100 -39,-163 0,-30 5,-60 19,-86 14,-28 38,-52 73,-66 25,-11 56,-17 95,-17 88,-1 140,26 204,59 19,10 39,20 64,31 11,5 19,9 25,11 11,5 19,8 26,11 103,44 199,75 294,95 94,20 188,28 290,27l0 0c110,1 211,-9 313,-32 103,-23 207,-60 322,-112l0 0c9,-4 21,-10 35,-16 12,-6 23,-11 32,-15 15,-7 18,-8 21,-10 84,-40 153,-73 261,-38 4,2 9,3 14,6 62,26 86,75 91,130 4,49 -8,101 -21,142 -5,16 -11,31 -17,43l-5 12 -11 6c-120,60 -277,110 -457,145z"/>
   </g>
  </g>
 </g>
</svg>
