<?xml version="1.0" encoding="UTF-8"?>
<!DOCTYPE svg PUBLIC "-//W3C//DTD SVG 1.1//EN" "http://www.w3.org/Graphics/SVG/1.1/DTD/svg11.dtd">
<!-- Creator: CorelDRAW X7 -->
<svg xmlns="http://www.w3.org/2000/svg" xml:space="preserve" width="57mm" height="57mm" version="1.1" style="shape-rendering:geometricPrecision; text-rendering:geometricPrecision; image-rendering:optimizeQuality; fill-rule:evenodd; clip-rule:evenodd"
viewBox="0 0 5700 5700"
 xmlns:xlink="http://www.w3.org/1999/xlink">
 <defs>
  <style type="text/css">
   <![CDATA[
    .str3 {stroke:black;stroke-width:70}
    .str2 {stroke:black;stroke-width:30}
    .str1 {stroke:black;stroke-width:70;stroke-linecap:round;stroke-linejoin:round}
    .str0 {stroke:black;stroke-width:70;stroke-linecap:round;stroke-linejoin:round}
    .fil7 {fill:none}
    .fil2 {fill:black}
    .fil9 {fill:#2C6371}
    .fil10 {fill:#5D8F8E}
    .fil5 {fill:#65DC4C}
    .fil1 {fill:#8FFF76}
    .fil0 {fill:#D9FFD3}
    .fil8 {fill:#DB7573}
    .fil3 {fill:#FFDBDE}
    .fil6 {fill:black;fill-rule:nonzero}
    .fil4 {fill:#FF7694;fill-rule:nonzero}
   ]]>
  </style>
 </defs>
 <g id="Layer_x0020_1">
  <metadata id="CorelCorpID_0Corel-Layer"/>
  <g id="_2455159353776">
   <g>
    <path class="fil0" d="M4964 4889c92,-88 169,-193 220,-319 0,0 -34,-128 -62,-209 -113,-321 -545,-1073 -2040,-641l-21 6c0,58 -95,105 -211,105 -116,0 -211,-47 -211,-105l-21 -6c-1495,-432 -1927,320 -2040,641 -28,81 -62,209 -62,209 108,266 335,441 560,555 850,432 3223,406 3888,-236z"/>
    <path class="fil1" d="M1644 1964c-11,-9 -11,-10 -23,-19 -43,-36 -90,-72 -112,-86 -206,-131 -767,-440 -1321,-321 -176,610 42,1323 139,1590 15,43 62,155 90,226l-1 6c-74,330 -97,751 80,1166 5,11 10,23 16,35 1,3 2,6 4,9 0,0 34,-128 62,-209 113,-321 545,-1073 2040,-641l21 6c0,-57 95,-104 211,-104 116,0 211,47 211,104l21 -6c1495,-432 1927,320 2040,641 28,81 62,209 62,209 2,-3 3,-6 4,-9 194,-426 172,-861 96,-1200 7,-17 15,-40 23,-59 24,-64 53,-138 66,-174 97,-267 315,-980 139,-1590 -554,-119 -1115,190 -1321,321 -28,18 -85,65 -135,107 -1,1 -5,4 -8,7l-1 0c-267,-108 -538,-164 -804,-188 -129,-12 -256,-24 -382,-24 -94,-1 -188,3 -281,11 -118,10 -239,11 -357,33 -139,26 -283,57 -425,100 -50,15 -103,41 -154,59zm3477 906c-39,-86 -67,-135 -67,-135 -143,-238 -348,-418 -569,-553 54,-43 138,-109 184,-134 147,-80 397,-194 599,-170 40,329 -40,637 -92,791 -12,38 -33,120 -49,184 0,4 -3,11 -6,17zm-3904 -689c-222,135 -428,315 -571,554 0,0 -27,48 -66,132 -16,-66 -44,-160 -56,-198 -52,-154 -132,-462 -92,-791 202,-24 452,90 599,170 47,26 131,90 186,133z"/>
    <path class="fil2" d="M2850 3839c126,0 227,-50 227,-113 0,-62 -101,-113 -227,-113 -126,0 -227,51 -227,113 0,63 101,113 227,113z"/>
    <circle class="fil3" cx="1343" cy="4097" r="240"/>
    <circle class="fil3" cx="4307" cy="4097" r="240"/>
    <path class="fil4" d="M1349 3966c10,-10 26,-10 36,0 9,9 9,25 0,35l-137 137c-10,10 -26,10 -35,0 -10,-10 -10,-26 0,-36l136 -136z"/>
    <path class="fil4" d="M1437 4033c9,-10 25,-11 35,-2 10,10 11,25 1,35l-147 161c-10,11 -25,11 -36,2 -10,-9 -10,-25 -1,-35l148 -161z"/>
    <path class="fil4" d="M4314 3966c10,-10 26,-10 35,0 10,9 10,25 0,35l-136 137c-10,10 -26,10 -36,0 -10,-10 -10,-26 0,-36l137 -136z"/>
    <path class="fil4" d="M4401 4033c10,-10 26,-11 36,-2 10,10 10,25 1,35l-148 161c-9,11 -25,11 -35,2 -10,-9 -11,-25 -1,-35l147 -161z"/>
    <path class="fil5" d="M5268 1878c40,329 -40,637 -92,791 -14,42 -38,139 -54,205 -39,-89 -68,-139 -68,-139 -143,-239 -349,-419 -571,-554 54,-43 138,-107 186,-133 147,-80 397,-194 599,-170z"/>
    <path class="fil5" d="M432 1878c-40,329 40,637 92,791 14,42 38,139 54,205 39,-89 68,-139 68,-139 143,-239 349,-419 571,-554 -54,-43 -138,-107 -186,-133 -147,-80 -397,-194 -599,-170z"/>
    <path class="fil6" d="M1640 1899c15,-12 37,-10 50,5 12,14 10,37 -5,49 -15,12 -53,30 -102,54 -50,23 -112,53 -170,85 -48,26 -93,59 -128,85 -26,18 -47,33 -63,42 -16,9 -38,3 -47,-14 -9,-17 -3,-38 14,-47 13,-8 32,-21 55,-38 37,-27 84,-61 135,-89 61,-34 124,-64 174,-88 45,-21 79,-37 87,-44z"/>
    <path class="fil6" d="M550 2853c11,-15 33,-19 48,-7 16,11 19,33 8,49 -1,0 -87,116 -142,258 -6,16 -12,32 -17,48 -13,46 -24,209 -63,199 -20,1 -36,-15 -36,-34 -1,-40 5,-81 14,-121 9,-40 22,-79 37,-117 59,-151 150,-275 151,-275z"/>
    <path class="fil7 str0" d="M4039 1926c24,20 152,71 267,135 82,46 155,108 190,127"/>
    <path class="fil6" d="M5150 2853c-12,-15 -34,-19 -49,-7 -16,11 -19,33 -7,49 0,0 86,116 141,258 6,16 13,32 17,48 13,46 24,209 64,199 19,1 35,-15 35,-34 1,-40 -4,-81 -14,-121 -9,-40 -22,-79 -37,-117 -58,-151 -150,-275 -150,-275z"/>
    <path class="fil8" d="M2961 4363c54,-53 89,-149 109,-226 -77,-8 -147,-37 -209,-84 -52,51 -113,89 -182,111 11,60 46,114 88,159 62,64 116,117 194,40z"/>
    <g>
     <path class="fil2" d="M1669 1893c178,-64 364,-112 550,-145 25,-4 50,-9 75,-13 31,-5 61,-9 91,-13 114,-14 310,-28 420,-31 224,-5 468,19 677,56 187,33 373,82 551,146 38,-32 80,-68 120,-93 169,-107 356,-198 546,-262 265,-89 552,-128 828,-68 26,5 45,23 53,49 147,511 38,1139 -141,1632 -21,59 -44,118 -67,176 -5,13 -10,26 -15,40 88,410 71,834 -104,1221l-3 8 0 0 0 0 0 0 0 0 -1 0 0 0 0 0 0 1 0 0 0 0 0 1c-54,130 -135,244 -236,341 -437,422 -1457,530 -2037,544 -361,10 -731,-8 -1089,-60 -275,-41 -594,-109 -843,-235 -255,-130 -482,-320 -593,-590l0 -1 0 0 0 0 0 -1 0 0 0 0 -1 0 0 0 0 0 0 0 0 0 -3 -8c-5,-11 -10,-23 -15,-35 -162,-379 -176,-795 -88,-1193 -28,-69 -58,-139 -83,-209 -179,-493 -288,-1121 -141,-1632 8,-26 27,-44 53,-49 276,-60 563,-21 828,68 190,64 377,155 546,262 40,25 83,60 122,93zm813 -110c0,0 -389,27 -827,189 -51,-42 -119,-96 -146,-113 -206,-131 -767,-440 -1321,-321 -176,610 42,1323 139,1590 15,43 62,155 90,226l-1 6 -3 15 0 1 -3 14 -1 1 -3 14 0 2 -3 13 0 3 -3 12 0 2 -1 8 -2 8 -2 10 0 4 -2 12 -1 4 -2 12 -1 4 -1 10 -2 9 -1 7 -1 7 -2 11 0 5 -2 11 -1 6 -1 11 0 3 -2 14 0 3c-34,283 -17,608 120,930 5,11 10,23 16,35 1,3 2,6 4,9 108,266 335,441 560,555 850,432 3223,406 3888,-236 92,-88 169,-193 220,-319 2,-3 3,-6 4,-9 20,-44 38,-87 53,-131l1 -2c2,-6 4,-11 6,-17l0 -2c2,-5 4,-10 6,-16l1 -3 5 -16 1 -2c17,-55 31,-109 42,-163l0 -2c1,-6 2,-11 3,-17l1 -1c2,-12 4,-24 6,-36l1 -2c2,-11 3,-23 5,-35l0 -1c7,-48 13,-95 16,-142l0 -2 1 -17 0 0c0,-6 1,-12 1,-18l0 0 1 -17 0 -2 0 -16 0 -1 1 -16 0 -2 0 -15 0 -5 0 -13 0 -3c0,-11 0,-22 0,-33 0,-6 0,-11 0,-17l0 0 -1 -17 0 -12 0 -6 -1 -15 0 -2 -1 -15 0 -2 -1 -13 0 -6 -1 -11 0 -6 -1 -13 -1 -3 -1 -13 0 -5 -1 -12 -1 -5 -1 -12 0 -4 -2 -12 -1 -8 -1 -9 0 -1 -2 -15 0 -1 -2 -16 0 -1 -2 -15 0 -2 -2 -14 -1 -2 -1 -6 -1 -12 -1 -4 -2 -11 -1 -7 -2 -10 -1 -6 -1 -9 -2 -8 -2 -10 0 -4 -3 -12 -1 -5 -2 -10 -1 -5 0 -3 -1 -6 -2 -9 0 0 -3 -14 -1 -1 -3 -15c7,-17 15,-40 23,-59 24,-64 53,-138 66,-174 97,-267 315,-980 139,-1590 -554,-119 -1115,190 -1321,321 -28,18 -85,65 -135,107 -1,1 -5,4 -8,7l-1 0c-305,-113 -586,-161 -729,-179 -63,-8 -100,-11 -100,-11 -290,-31 -453,-28 -736,0zm2857 2063c0,-11 0,-22 0,-33l0 33zm-2662 -179c19,12 31,32 32,55 7,9 29,19 38,22 32,12 69,17 103,17 34,0 71,-5 103,-17 9,-3 31,-13 38,-22 1,-23 13,-43 32,-55 24,17 38,37 38,59 0,58 -95,105 -211,105 -116,0 -211,-47 -211,-105 0,-22 14,-42 38,-59z"/>
    </g>
    <g>
     <path class="fil2" d="M2591 4182c-45,4 -97,3 -139,-7 -5,-2 -9,-5 -12,-9 -3,-5 -4,-10 -3,-16l12 -48c3,-11 14,-17 24,-15 129,31 266,-27 350,-124l17 -19c4,-5 8,-7 14,-7 5,-1 10,1 15,5l18 17c67,59 148,94 238,91 36,-2 78,-9 111,-24 10,-4 22,0 26,10l21 45c2,5 2,11 0,16 -2,5 -5,9 -10,11 -32,15 -74,24 -110,28 -32,136 -113,346 -273,355 -48,3 -63,-3 -101,-31 -92,-67 -176,-164 -198,-278zm88 -18c11,60 46,114 88,159 62,64 116,117 194,40 54,-53 89,-149 109,-226 -77,-8 -147,-37 -209,-84 -52,51 -113,89 -182,111z"/>
     <path class="fil8" d="M2961 4363c54,-53 89,-149 109,-226 -77,-8 -147,-37 -209,-84 -52,51 -113,89 -182,111 11,60 46,114 88,159 62,64 116,117 194,40z"/>
    </g>
   </g>
   <path class="fil7 str1" d="M1959 2516c0,0 -475,644 -620,675 392,4 979,-496 979,-496m1936 -646c110,417 -135,802 -399,1081 -89,95 -167,168 -172,142 0,0 231,-277 136,-637m0 0c0,0 -452,551 -879,750 0,0 328,-554 218,-712m0 0c0,0 -188,300 -390,430m0 0c0,0 -501,370 -836,337 0,0 443,-498 386,-745"/>
   <g id="_2455159354256">
    <path class="fil9 str2" d="M2020 1165c105,-9 366,-30 684,-32 6,0 11,0 17,0 -13,-226 56,-686 94,-916 -50,-6 -103,-1 -161,18 0,0 -17,10 -46,29 -144,94 -583,413 -787,927 77,-17 150,-21 150,-21 0,0 17,-2 49,-5z"/>
    <path class="fil10 str2" d="M1959 1585c74,-41 68,-304 61,-420 -32,3 -49,5 -49,5 0,0 -73,4 -150,21 -81,18 -169,52 -183,112 -29,117 -280,401 -280,401 0,0 129,108 406,204 47,-110 131,-287 195,-323z"/>
    <path class="fil9 str2" d="M2020 1165c39,-3 97,-8 172,-13 31,-175 150,-612 411,-884 -149,97 -580,415 -782,923 77,-17 150,-21 150,-21 0,0 17,-2 49,-5z"/>
    <path class="fil10 str2" d="M2751 1717c-105,-390 -61,-548 -47,-584 -202,1 -381,10 -512,19 -75,5 -133,10 -172,13 7,116 13,379 -61,420 -64,36 -148,213 -195,323 210,73 505,140 892,147 40,-84 87,-210 95,-338z"/>
    <path class="fil10 str2" d="M2704 1133c-14,36 -58,194 47,584 -8,128 -55,254 -95,338 245,4 527,-15 848,-71 27,-146 -21,-269 -21,-269 0,0 -82,-64 -88,-280 -7,-216 -95,-280 -95,-280 -21,-2 -43,-4 -64,-6 -177,-13 -353,-17 -515,-16l-17 0z"/>
    <path class="fil9 str2" d="M2721 1133c162,-1 338,3 515,16 15,-82 -69,-529 -118,-774 -95,-78 -191,-145 -303,-158 -38,230 -107,690 -94,916z"/>
    <path class="fil9 str2" d="M3118 375c49,245 133,692 118,774 21,2 43,4 64,6 67,5 135,13 202,21 -28,-184 -98,-456 -139,-610 -86,-54 -165,-126 -245,-191z"/>
    <path class="fil9 str2" d="M3363 566c41,154 111,426 139,610 0,0 0,0 0,0 49,7 98,14 147,22 20,4 41,7 62,11 -48,-188 -155,-530 -329,-632 -4,-2 -8,-4 -12,-7 -2,-1 -5,-3 -7,-4z"/>
    <path class="fil10 str2" d="M3502 1176c-67,-8 -135,-16 -202,-21 0,0 88,64 95,280 6,216 88,280 88,280 0,0 48,123 21,269 115,-20 234,-45 359,-75 9,-53 9,-118 -19,-188 0,0 -147,-90 -149,-260 -3,-167 -28,-235 -45,-261l-148 -24c0,0 0,0 0,0z"/>
    <path class="fil10 str2" d="M3650 1200c17,26 42,94 45,261 2,170 149,260 149,260 28,70 28,135 19,188 95,-23 193,-50 295,-79 0,0 -73,-499 -256,-578 -62,-16 -126,-30 -191,-43l-61 -9z"/>
    <path class="fil7 str3" d="M1358 1704c0,0 840,699 2800,126 0,0 -73,-499 -256,-578 -792,-207 -1931,-82 -1931,-82 0,0 -305,16 -333,133 -29,117 -280,401 -280,401z"/>
    <path class="fil7 str3" d="M3711 1209c-48,-188 -155,-530 -329,-632 -245,-143 -426,-445 -728,-342 0,0 -17,10 -46,29 -144,94 -583,413 -787,927 77,-17 150,-21 150,-21 0,0 968,-106 1740,39z"/>
   </g>
  </g>
 </g>
</svg>
