<?xml version="1.0" encoding="UTF-8"?>
<!DOCTYPE svg PUBLIC "-//W3C//DTD SVG 1.1//EN" "http://www.w3.org/Graphics/SVG/1.1/DTD/svg11.dtd">
<!-- Creator: CorelDRAW X7 -->
<svg xmlns="http://www.w3.org/2000/svg" xml:space="preserve" width="57mm" height="57mm" version="1.1" style="shape-rendering:geometricPrecision; text-rendering:geometricPrecision; image-rendering:optimizeQuality; fill-rule:evenodd; clip-rule:evenodd"
viewBox="0 0 5700 5700"
 xmlns:xlink="http://www.w3.org/1999/xlink">
 <defs>
  <style type="text/css">
   <![CDATA[
    .str0 {stroke:black;stroke-width:70;stroke-linecap:round;stroke-linejoin:round}
    .fil7 {fill:none}
    .fil0 {fill:black}
    .fil5 {fill:#7B4200}
    .fil1 {fill:#AA541B}
    .fil8 {fill:#DB7573}
    .fil2 {fill:#EEBC96}
    .fil3 {fill:#FFDBDE}
    .fil6 {fill:black;fill-rule:nonzero}
    .fil4 {fill:#FF7694;fill-rule:nonzero}
   ]]>
  </style>
 </defs>
 <g id="Layer_x0020_1">
  <metadata id="CorelCorpID_0Corel-Layer"/>
  <g id="_2455403555856">
   <path class="fil0" d="M3427 1231c111,82 173,198 145,346 -12,68 -48,148 -92,202 -22,28 -60,35 -90,17 -176,-105 -922,-73 -1145,-57 -23,2 -43,-6 -58,-24 -41,-46 -73,-114 -80,-175 -15,-131 68,-217 172,-271 -38,-35 -65,-79 -63,-135 4,-100 109,-184 218,-244 -17,-15 -29,-34 -32,-59 -14,-99 135,-168 208,-202 59,-28 120,-53 181,-75 24,-14 72,-40 99,-60 -16,-11 -36,-14 -54,-20 -18,-6 -37,-13 -54,-22 -34,-18 -58,-50 -48,-90 16,-65 86,-62 136,-55 66,9 130,20 189,53 133,75 215,169 210,330 -1,45 -15,84 -40,114 108,79 218,189 223,316 1,35 -9,75 -25,111z"/>
   <path class="fil1" d="M2239 1670c0,0 958,-70 1187,66 0,0 202,-253 -26,-437 -23,-19 -88,-21 -119,-21 -181,0 74,-55 88,-89 8,-21 14,-44 13,-66 -2,-59 -39,-144 -176,-248 -11,-9 -24,-18 -37,-27 -10,-7 -103,-2 -112,-45 6,-9 89,-2 131,-73 6,-12 11,-26 11,-42 4,-135 -66,-206 -175,-267 -49,-28 -101,-30 -158,-35 -33,-3 -60,-2 -7,22 21,9 52,11 81,36 10,9 17,22 27,35 36,45 -93,105 -145,138 -38,14 -170,64 -261,116 -83,47 -131,97 -43,123 19,6 49,-8 82,-13 119,-17 122,11 9,54 -104,39 -392,160 -308,291 23,36 235,36 258,46 35,14 19,46 -28,51 -34,4 -147,16 -153,18 -350,124 -139,367 -139,367z"/>
   <path class="fil2" d="M4964 4800c92,-89 169,-194 220,-319 0,0 -34,-128 -62,-209 -113,-321 -545,-1074 -2040,-641l-21 6c0,58 -95,105 -211,105 -116,0 -211,-47 -211,-105l-21 -6c-1495,-433 -1927,320 -2040,641 -28,81 -62,209 -62,209 108,265 335,441 560,555 850,431 3223,405 3888,-236z"/>
   <g>
    <path class="fil0" d="M1669 1804c178,-64 364,-112 550,-145 83,-15 171,-29 255,-35l7 -1 76 -1c-2,23 -5,45 -8,64 -43,4 -67,8 -67,8 0,0 -389,27 -827,189 -51,-42 -119,-96 -146,-113 -206,-132 -767,-441 -1321,-321 -176,609 42,1322 139,1589 15,43 62,156 90,226l-1 7 -3 15 0 0 -3 15 -1 1 -3 14 0 2 -3 13 0 3 -3 12 0 2 -1 7 -2 9 -2 9 0 5 -2 11 -1 5 -2 12 -1 4 -1 9 -2 9 -1 8 -1 7 -2 10 0 6 -2 11 -1 5 -1 12 0 3 -2 13 0 3c-34,284 -17,609 120,930 5,12 10,24 16,35 1,4 2,7 4,10 108,265 335,441 560,555 850,431 3223,405 3888,-236 92,-89 169,-194 220,-319 2,-3 3,-6 4,-10 20,-43 38,-87 53,-130l1 -3c2,-5 4,-11 6,-16l0 -2c2,-5 4,-11 6,-16l1 -4 5 -15 1 -3c17,-54 31,-108 42,-163l0 -2c1,-5 2,-11 3,-16l1 -2c2,-12 4,-23 6,-35l1 -2c2,-12 3,-23 5,-35l0 -1c7,-48 13,-95 16,-142l0 -2 1 -17 0 -1c0,-6 1,-11 1,-17l0 0 1 -17 0 -2 0 -16 0 -2 1 -16 0 -2 0 -15 0 -4 0 -14 0 -3c0,-11 0,-21 0,-32 0,-6 0,-12 0,-17l0 -1 -1 -17 0 -11 0 -7 -1 -14 0 -2 -1 -15 0 -3 -1 -12 0 -6 -1 -12 0 -5 -1 -13 -1 -3 -1 -13 0 -5 -1 -12 -1 -5 -1 -13 0 -4 -2 -12 -1 -7 -1 -10 0 0 -2 -16 0 0 -2 -17 0 0 -2 -16 0 -2 -2 -14 -1 -1 -1 -6 -1 -12 -1 -4 -2 -11 -1 -7 -2 -10 -1 -6 -1 -10 -2 -7 -2 -10 0 -5 -3 -11 -1 -6 -2 -10 -1 -4 0 -4 -1 -6 -2 -8 0 -1 -3 -13 -1 -2 -3 -14c7,-17 15,-41 23,-60 24,-63 53,-138 66,-174 97,-267 315,-980 139,-1589 -554,-120 -1115,189 -1321,321 -28,17 -85,65 -135,106 -1,2 -5,5 -8,8l-1 0c-439,-163 -829,-190 -829,-190 0,0 -15,-3 -44,-5l-40 -71c30,0 57,0 81,0l3 5c2,0 5,1 8,1 84,6 173,19 256,34 187,33 373,81 551,146 38,-32 80,-68 120,-93 169,-108 356,-199 546,-262 265,-89 552,-128 828,-69 26,6 45,24 53,49 147,511 38,1140 -141,1633 -21,59 -44,117 -67,176 -5,13 -10,26 -15,39 88,411 71,835 -104,1222l-3 7 0 1 0 0 0 0 0 0 -1 0 0 0 0 0 0 0 0 0 0 0 0 2c-54,130 -135,244 -236,341 -437,422 -1457,530 -2037,544 -361,9 -731,-8 -1089,-61 -275,-40 -594,-108 -843,-235 -255,-129 -482,-319 -593,-589l0 -2 0 0 0 0 0 0 0 0 0 0 -1 0 0 0 0 0 0 0 0 -1 -3 -7c-5,-12 -10,-23 -15,-35 -162,-379 -176,-795 -88,-1194 -28,-69 -58,-138 -83,-208 -179,-493 -288,-1122 -141,-1633 8,-25 27,-43 53,-49 276,-59 563,-20 828,69 190,63 377,154 546,262 40,25 83,60 122,93zm3670 1952c0,-11 0,-21 0,-32l0 32zm-2662 -178c19,11 31,31 32,55 7,8 29,18 38,22 32,12 69,17 103,17 34,0 71,-5 103,-17 9,-4 31,-14 38,-22 1,-24 13,-44 32,-55 24,16 38,37 38,59 0,58 -95,105 -211,105 -116,0 -211,-47 -211,-105 0,-22 14,-43 38,-59z"/>
   </g>
   <path class="fil1" d="M2482 1694c0,0 -389,27 -827,189 -51,-42 -119,-96 -146,-113 -206,-132 -767,-441 -1321,-321 -176,609 42,1322 139,1589 15,43 62,156 90,226l-1 7c-74,330 -97,751 80,1165 5,12 10,24 16,35 1,4 2,7 4,10 0,0 34,-128 62,-209 113,-321 545,-1074 2040,-641l21 6c0,-58 95,-105 211,-105 116,0 211,47 211,105l21 -6c1495,-433 1927,320 2040,641 28,81 62,209 62,209 2,-3 3,-6 4,-10 194,-425 172,-860 96,-1199 7,-17 15,-41 23,-60 24,-63 53,-138 66,-174 97,-267 315,-980 139,-1589 -554,-120 -1115,189 -1321,321 -28,17 -85,65 -135,106 -1,2 -5,5 -8,8l-1 0c-439,-163 -829,-190 -829,-190 0,0 -15,-3 -44,-5l-117 -210 -497 0c4,81 -1,152 -11,207 -43,4 -67,8 -67,8zm2639 1087c-39,-86 -67,-135 -67,-135 -143,-239 -348,-418 -569,-553 54,-43 138,-109 184,-134 147,-80 397,-194 599,-171 40,330 -40,638 -92,792 -12,37 -33,120 -49,184 0,4 -3,10 -6,17zm-3904 -689c-222,135 -428,315 -571,554 0,0 -27,48 -66,132 -16,-66 -44,-160 -56,-198 -52,-154 -132,-462 -92,-792 202,-23 452,91 599,171 47,25 131,90 186,133z"/>
   <path class="fil0" d="M2850 3750c126,0 227,-51 227,-113 0,-62 -101,-113 -227,-113 -126,0 -227,51 -227,113 0,62 101,113 227,113z"/>
   <circle class="fil3" cx="1343" cy="4008" r="240"/>
   <circle class="fil3" cx="4307" cy="4008" r="240"/>
   <path class="fil4" d="M1349 3876c10,-9 26,-9 36,0 9,10 9,26 0,36l-137 136c-10,10 -26,10 -35,0 -10,-9 -10,-25 0,-35l136 -137z"/>
   <path class="fil4" d="M1437 3943c9,-10 25,-10 35,-1 10,9 11,25 1,35l-147 161c-10,10 -25,11 -36,2 -10,-10 -10,-26 -1,-36l148 -161z"/>
   <path class="fil4" d="M4314 3876c10,-9 26,-9 35,0 10,10 10,26 0,36l-136 136c-10,10 -26,10 -36,0 -10,-9 -10,-25 0,-35l137 -137z"/>
   <path class="fil4" d="M4401 3943c10,-10 26,-10 36,-1 10,9 10,25 1,35l-148 161c-9,10 -25,11 -35,2 -10,-10 -11,-26 -1,-36l147 -161z"/>
   <path class="fil5" d="M5268 1788c40,330 -40,638 -92,792 -14,41 -38,139 -54,204 -39,-88 -68,-138 -68,-138 -143,-239 -349,-419 -571,-554 54,-43 138,-107 186,-133 147,-80 397,-194 599,-171z"/>
   <path class="fil5" d="M432 1788c-40,330 40,638 92,792 14,41 38,139 54,204 39,-88 68,-138 68,-138 143,-239 349,-419 571,-554 -54,-43 -138,-107 -186,-133 -147,-80 -397,-194 -599,-171z"/>
   <path class="fil6" d="M1640 1810c15,-12 37,-10 50,4 12,15 10,37 -5,50 -15,12 -53,30 -102,53 -50,24 -112,53 -170,85 -48,27 -93,59 -128,85 -26,19 -47,34 -63,42 -16,10 -38,4 -47,-13 -9,-17 -3,-39 14,-48 13,-7 32,-21 55,-37 37,-27 84,-61 135,-90 61,-33 124,-63 174,-87 45,-21 79,-37 87,-44z"/>
   <path class="fil6" d="M550 2764c11,-16 33,-19 48,-8 16,12 19,34 8,49 -1,1 -87,117 -142,259 -6,16 -12,31 -17,47 -13,47 -24,210 -63,200 -20,0 -36,-15 -36,-34 -1,-40 5,-81 14,-122 9,-39 22,-79 37,-116 59,-151 150,-275 151,-275z"/>
   <path class="fil7 str0" d="M4039 1837c24,20 152,71 267,135 82,46 155,107 190,127"/>
   <path class="fil6" d="M5150 2764c-12,-16 -34,-19 -49,-8 -16,12 -19,34 -7,49 0,1 86,117 141,259 6,16 13,31 17,47 13,47 24,210 64,200 19,0 35,-15 35,-34 1,-40 -4,-81 -14,-122 -9,-39 -22,-79 -37,-116 -58,-151 -150,-275 -150,-275z"/>
   <path class="fil8" d="M2961 4274c54,-53 89,-150 109,-226 -77,-8 -147,-38 -209,-84 -52,51 -113,89 -182,110 11,61 46,115 88,159 62,65 116,117 194,41z"/>
   <path class="fil0" d="M2848 4316c213,14 391,-61 398,-167 6,-105 -161,-202 -373,-216 -213,-13 -390,62 -397,167 -7,106 160,203 372,216z"/>
   <path class="fil6" d="M1699 2948c-17,-8 -25,-29 -17,-47 8,-17 29,-25 46,-17l416 187c3,1 5,2 7,4l0 0c1,1 2,1 2,2l0 0 0 0 1 0 0 0 0 0 0 0 0 1 0 0 1 0 0 0 0 1 0 0c2,1 3,3 4,5 5,6 7,14 6,21l0 0 0 0 0 0 0 1 0 0 0 0 0 0 0 0 0 0 0 0 0 0 0 0 0 0 0 0 0 1 0 0 0 0 0 0 0 0 0 0 0 0 0 0 0 0 0 0 0 0 0 0 0 0 0 0 0 0 0 1 0 0 0 0 0 0 0 0 0 0 0 0 0 0 0 0 0 0 0 0 0 0 0 1 0 0 0 0 0 0 0 0 0 0 0 0 0 0 0 0 0 0 0 0 0 1 0 0 0 0 0 0 0 0 0 0 0 0 0 0 0 0 0 0 0 0 0 1 0 0 0 0 0 0 0 0 0 0 0 0 0 0 -1 0 0 0 0 1 0 0 0 0 0 0 0 1c-1,4 -3,8 -5,11l-1 0c0,1 0,1 -1,2l0 0 0 0 0 0 0 0 -1 1 0 0 0 0 0 0 0 0 0 0 -1 1 0 0c-1,2 -3,3 -5,4l-346 234c-16,11 -38,7 -49,-9 -10,-16 -6,-38 10,-49l238 -161 -294 20c-19,1 -35,-14 -37,-33 -1,-19 14,-36 33,-37l284 -19 -290 -130z"/>
   <path class="fil6" d="M3987 2948c18,-8 25,-29 17,-47 -7,-17 -28,-25 -46,-17l-416 187c-2,1 -5,2 -7,4l0 0c-1,1 -1,1 -2,2l0 0 0 0 0 0 0 0 0 0 -1 0 0 1 0 0 0 0 0 0 -1 1 0 0c-1,1 -3,3 -4,5 -4,6 -6,14 -6,21l0 0 0 0 0 0 0 1 0 0 0 0 0 0 0 0 0 0 0 0 0 0 0 0 0 0 0 0 0 1 0 0 0 0 0 0 0 0 0 0 0 0 0 0 0 0 0 0 0 0 0 0 0 0 0 0 0 0 0 1 0 0 0 0 0 0 0 0 0 0 0 0 0 0 0 0 0 0 0 0 0 0 0 1 0 0 0 0 0 0 0 0 0 0 0 0 0 0 0 0 1 0 0 0 0 1 0 0 0 0 0 0 0 0 0 0 0 0 0 0 0 0 0 0 0 0 0 1 0 0 0 0 0 0 0 0 0 0 0 0 0 0 0 0 0 0 0 1 0 0 0 0 0 0 0 1c1,4 3,8 6,11l0 0c0,1 1,1 1,2l0 0 1 0 0 0 0 0 0 1 0 0 0 0 0 0 1 0 0 0 0 1 0 0c2,2 4,3 5,4l347 234c16,11 37,7 48,-9 11,-16 7,-38 -9,-49l-239 -161 294 20c19,1 36,-14 37,-33 1,-19 -13,-36 -32,-37l-284 -19 289 -130z"/>
  </g>
 </g>
</svg>
