<?xml version="1.0" encoding="UTF-8"?>
<!DOCTYPE svg PUBLIC "-//W3C//DTD SVG 1.1//EN" "http://www.w3.org/Graphics/SVG/1.1/DTD/svg11.dtd">
<!-- Creator: CorelDRAW X7 -->
<svg xmlns="http://www.w3.org/2000/svg" xml:space="preserve" width="57mm" height="57mm" version="1.1" style="shape-rendering:geometricPrecision; text-rendering:geometricPrecision; image-rendering:optimizeQuality; fill-rule:evenodd; clip-rule:evenodd"
viewBox="0 0 5700 5700"
 xmlns:xlink="http://www.w3.org/1999/xlink">
 <defs>
  <style type="text/css">
   <![CDATA[
    .str0 {stroke:black;stroke-width:70;stroke-linecap:round;stroke-linejoin:round}
    .fil8 {fill:none}
    .fil3 {fill:#FDFCFC}
    .fil1 {fill:black}
    .fil7 {fill:#3FA1CB}
    .fil2 {fill:#60C5F4}
    .fil0 {fill:#A7EDFC}
    .fil9 {fill:#DB7573}
    .fil4 {fill:#FFDBDE}
    .fil5 {fill:black;fill-rule:nonzero}
    .fil6 {fill:#FF7694;fill-rule:nonzero}
   ]]>
  </style>
 </defs>
 <g id="Layer_x0020_1">
  <metadata id="CorelCorpID_0Corel-Layer"/>
  <g id="_2455082696128">
   <g>
    <path class="fil0" d="M4964 4509c92,-88 169,-193 220,-319 0,0 -34,-128 -62,-209 -113,-321 -545,-1073 -2040,-641l-21 6c0,58 -95,105 -211,105 -116,0 -211,-47 -211,-105l-21 -6c-1495,-432 -1927,320 -2040,641 -28,81 -62,209 -62,209 108,266 335,441 560,555 850,432 3223,406 3888,-236z"/>
    <g>
     <path class="fil1" d="M1669 1513c178,-64 364,-112 550,-145 83,-15 171,-29 255,-35 5,0 9,-1 13,-1 16,-149 -11,-307 -65,-444 -9,-20 -7,-41 3,-60 11,-19 27,-31 49,-35 62,-11 140,4 214,30 -56,-73 -120,-143 -184,-209 -73,-78 -149,-153 -227,-226 -39,-38 -82,-75 -120,-114 -21,-21 -27,-51 -14,-79 13,-27 39,-42 69,-40 359,30 966,640 1114,955 12,25 8,54 -10,75 -18,21 -45,30 -72,22l-114 -32 88 157c2,1 5,1 8,1 84,6 173,20 256,34 187,33 373,82 551,146 38,-32 80,-68 120,-93 169,-107 356,-198 546,-262 265,-89 552,-128 828,-69 26,6 45,24 53,50 147,511 38,1139 -141,1632 -21,59 -44,118 -67,176 -5,13 -10,26 -15,39 88,411 71,835 -104,1222l-3 8 0 0 0 0 0 0 0 0 -1 0 0 0 0 0 0 1 0 0 0 0 0 1c-54,130 -135,244 -236,341 -437,422 -1457,530 -2037,544 -361,9 -731,-8 -1089,-61 -275,-40 -594,-108 -843,-235 -255,-129 -482,-319 -593,-589l0 -1 0 0 0 0 0 -1 0 0 0 0 -1 0 0 0 0 0 0 0 0 0 -3 -8c-5,-11 -10,-23 -15,-35 -162,-379 -176,-795 -88,-1193 -28,-69 -58,-139 -83,-209 -179,-493 -288,-1121 -141,-1632 8,-26 27,-44 53,-50 276,-59 563,-20 828,69 190,64 377,155 546,262 40,25 83,60 122,93zm3572 2537l1 -2c2,-6 4,-11 6,-17l0 -2c2,-5 4,-11 6,-16l1 -3 5 -16 1 -2c17,-55 31,-109 42,-163l0 -2c1,-6 2,-12 3,-17l1 -1c2,-12 4,-24 6,-36l1 -2c2,-11 3,-23 5,-35l0 -1c7,-48 13,-95 16,-142l0 -2 1 -17 0 0c0,-6 1,-12 1,-18l0 0 1 -17 0 -2 0 -16 0 -1 1 -16 0 -2 0 -15 0 -5 0 -13 0 -3c0,-11 0,-22 0,-33 0,-6 0,-11 0,-17l0 0 -1 -17 0 -12 0 -6 -1 -15 0 -2 -1 -15 0 -2 -1 -13 0 -6 -1 -11 0 -6 -1 -13 -1 -3 -1 -13 0 -5 -1 -12 -1 -5 -1 -12 0 -4 -2 -12 -1 -8 -1 -9 0 -1 -2 -15 0 -1 -2 -16 0 -1 -2 -15 0 -2 -2 -14 -1 -2 -1 -6 -1 -12 -1 -4 -2 -11 -1 -7 -2 -10 -1 -6 -1 -9 -2 -8 -2 -10 0 -4 -3 -12 -1 -5 -2 -10 -1 -5 0 -3 -1 -6 -2 -9 0 0 -3 -14 -1 -1 -3 -15c7,-17 15,-40 23,-59 24,-64 53,-138 66,-174 97,-267 315,-980 139,-1590 -554,-119 -1115,190 -1321,321 -28,18 -85,65 -135,106 -1,2 -5,5 -8,8l-1 0c-439,-163 -829,-190 -829,-190 0,0 -15,-2 -44,-5l-187 -335 276 77c-150,-318 -744,-889 -1057,-915 29,29 675,613 627,745 0,0 -216,-132 -347,-108 87,214 84,411 63,534 -43,4 -67,7 -67,7 0,0 -389,27 -827,189 -51,-42 -119,-96 -146,-113 -206,-131 -767,-440 -1321,-321 -176,610 42,1323 139,1590 15,43 62,155 90,226l-1 6 -3 15 0 1 -3 14 -1 1 -3 14 0 2 -3 13 0 3 -3 12 0 2 -1 8 -2 8 -2 10 0 4 -2 12 -1 4 -2 12 -1 4 -1 10 -2 9 -1 7 -1 7 -2 11 0 5 -2 11 -1 6 -1 11 0 3 -2 14 0 3c-34,283 -17,608 120,930 5,11 10,23 16,35 1,3 2,6 4,9 108,266 335,441 560,555 850,432 3223,406 3888,-236 92,-88 169,-193 220,-319 2,-3 3,-6 4,-9 20,-44 38,-87 53,-131zm98 -584c0,-11 0,-22 0,-33l0 33zm-2662 -179c19,12 31,32 32,55 7,9 29,19 38,22 32,12 69,17 103,17 34,0 71,-5 103,-17 9,-3 31,-13 38,-22 1,-23 13,-43 32,-55 24,17 38,37 38,59 0,58 -95,105 -211,105 -116,0 -211,-47 -211,-105 0,-22 14,-42 38,-59z"/>
    </g>
    <path class="fil2" d="M2482 1403c0,0 -389,27 -827,189 -51,-42 -119,-96 -146,-113 -206,-131 -767,-440 -1321,-321 -176,610 42,1323 139,1590 15,43 62,155 90,226l-1 6c-74,330 -97,751 80,1166 5,11 10,23 16,35 1,3 2,6 4,9 0,0 34,-128 62,-209 113,-321 545,-1073 2040,-641l21 6c0,-58 95,-104 211,-104 116,0 211,46 211,104l21 -6c1495,-432 1927,320 2040,641 28,81 62,209 62,209 2,-3 3,-6 4,-9 194,-426 172,-861 96,-1200 7,-17 15,-40 23,-59 24,-64 53,-138 66,-174 97,-267 315,-980 139,-1590 -554,-119 -1115,190 -1321,321 -28,18 -85,65 -135,106 -1,2 -5,5 -8,8l-1 0c-439,-163 -829,-190 -829,-190 0,0 -15,-2 -44,-5l-187 -335 276 77c-150,-318 -744,-889 -1057,-915 29,29 675,613 627,745 0,0 -216,-132 -347,-108 87,214 84,411 63,534 -43,4 -67,7 -67,7zm2639 1087c-39,-86 -67,-135 -67,-135 -143,-239 -348,-418 -569,-553 54,-43 138,-109 184,-134 147,-80 397,-194 599,-171 40,330 -40,638 -92,792 -12,38 -33,120 -49,184 0,4 -3,11 -6,17zm-3904 -689c-222,135 -428,315 -571,554 0,0 -27,48 -66,132 -16,-66 -44,-160 -56,-198 -52,-154 -132,-462 -92,-792 202,-23 452,91 599,171 47,26 131,90 186,133z"/>
    <path class="fil1" d="M2850 3459c126,0 227,-50 227,-113 0,-62 -101,-113 -227,-113 -126,0 -227,51 -227,113 0,63 101,113 227,113z"/>
    <path class="fil1" d="M1672 4927c114,-1 264,-6 373,-40 14,-5 66,-24 73,-40l1 -5c1,-35 28,-63 62,-67 35,-3 67,19 75,53 50,196 48,406 4,604 -8,37 -44,61 -81,53 -210,-41 -424,-94 -628,-157 -141,-44 -292,-97 -421,-168 -94,-51 -220,-136 -221,-255 -1,-53 13,-112 29,-162 7,-21 21,-36 41,-44 21,-8 41,-6 60,5 136,77 285,136 435,178 63,18 133,35 198,45zm520 490c29,-132 54,-344 -3,-572l-1 8c-4,52 -75,142 -521,144 0,0 -341,-50 -662,-232 -13,39 -27,93 -26,139 3,255 1004,472 1213,513z"/>
    <path class="fil3" d="M2192 5417c29,-132 54,-344 -3,-572l-1 8c-4,52 -75,142 -521,144 0,0 -341,-50 -662,-232 -13,39 -27,93 -26,139 3,255 1004,472 1213,513z"/>
    <path class="fil3" d="M3508 5417c-29,-132 -54,-344 3,-572l1 8c4,52 75,142 521,144 0,0 341,-50 662,-232 13,39 27,93 26,139 -3,255 -1004,472 -1213,513z"/>
    <path class="fil1" d="M3582 4847c7,16 59,35 73,40 109,34 259,39 373,40 65,-10 135,-27 198,-45 150,-42 299,-101 435,-178 19,-11 39,-13 60,-5 20,8 34,23 41,44 16,50 30,109 29,162 -1,119 -127,204 -221,255 -129,71 -280,124 -421,168 -204,63 -418,116 -628,157 -37,8 -73,-16 -81,-53 -44,-198 -46,-408 4,-604 8,-34 40,-56 75,-53 34,4 61,32 62,67l1 5zm-74 570c-29,-132 -54,-344 3,-572l1 8c4,52 75,142 521,144 0,0 341,-50 662,-232 13,39 27,93 26,139 -3,255 -1004,472 -1213,513z"/>
    <path class="fil3" d="M3508 5417c-29,-132 -54,-344 3,-572l1 8c4,52 75,142 521,144 0,0 341,-50 662,-232 13,39 27,93 26,139 -3,255 -1004,472 -1213,513z"/>
    <path class="fil1" d="M2518 4993c0,-1 -48,-56 -136,-110 -21,-14 -44,-28 -68,-44 -70,-47 -249,-196 -205,-39 1,4 2,7 3,10 50,233 23,446 -8,581 -8,36 -18,71 -29,106 -20,67 -15,61 110,0 125,-60 295,-161 295,-161 78,0 156,0 235,1 130,12 110,17 235,0l270 0c0,0 170,100 295,160 125,61 130,67 110,0 -11,-35 -21,-70 -29,-106 -31,-135 -58,-348 -8,-581 1,-3 2,-6 3,-10 44,-157 -127,-10 -198,37 -23,15 -46,30 -68,44 -87,53 -143,111 -143,112 -73,0 -146,0 -218,0 -57,-14 -94,-23 -133,-21 -35,2 -72,13 -121,21l-192 0z"/>
    <circle class="fil4" cx="1343" cy="3717" r="240"/>
    <path class="fil5" d="M1567 3009c-6,11 -15,18 -26,22l0 0c-11,4 -23,3 -34,-3 -11,-5 -19,-15 -23,-26l0 0c-3,-11 -3,-23 3,-34 1,-3 20,-40 55,-79 77,-87 283,-182 517,26 10,8 15,19 15,31 1,11 -3,23 -11,32 -8,10 -19,15 -31,15 -11,1 -23,-3 -32,-11 -177,-157 -340,-90 -395,-29 -23,27 -36,51 -38,55l0 0 0 1z"/>
    <circle class="fil4" cx="4307" cy="3717" r="240"/>
    <path class="fil6" d="M1349 3586c10,-10 26,-10 36,0 9,9 9,25 0,35l-137 137c-10,9 -26,9 -35,0 -10,-10 -10,-26 0,-36l136 -136z"/>
    <path class="fil6" d="M1437 3653c9,-11 25,-11 35,-2 10,9 11,25 1,35l-147 161c-10,10 -25,11 -36,2 -10,-10 -10,-25 -1,-35l148 -161z"/>
    <path class="fil6" d="M4314 3586c10,-10 26,-10 35,0 10,9 10,25 0,35l-136 137c-10,9 -26,9 -36,0 -10,-10 -10,-26 0,-36l137 -136z"/>
    <path class="fil6" d="M4401 3653c10,-11 26,-11 36,-2 10,9 10,25 1,35l-148 161c-9,10 -25,11 -35,2 -10,-10 -11,-25 -1,-35l147 -161z"/>
    <path class="fil7" d="M5268 1497c40,330 -40,638 -92,792 -14,42 -38,139 -54,205 -39,-89 -68,-139 -68,-139 -143,-239 -349,-419 -571,-554 54,-43 138,-107 186,-133 147,-80 397,-194 599,-171z"/>
    <path class="fil7" d="M432 1497c-40,330 40,638 92,792 14,42 38,139 54,205 39,-89 68,-139 68,-139 143,-239 349,-419 571,-554 -54,-43 -138,-107 -186,-133 -147,-80 -397,-194 -599,-171z"/>
    <path class="fil5" d="M1640 1519c15,-12 37,-10 50,5 12,14 10,36 -5,49 -15,12 -53,30 -102,54 -50,23 -112,53 -170,85 -48,26 -93,59 -128,85 -26,18 -47,33 -63,42 -16,9 -38,3 -47,-14 -9,-17 -3,-38 14,-47 13,-8 32,-21 55,-38 37,-27 84,-61 135,-89 61,-34 124,-64 174,-88 45,-21 79,-37 87,-44z"/>
    <path class="fil5" d="M550 2473c11,-15 33,-19 48,-7 16,11 19,33 8,49 -1,0 -87,116 -142,258 -6,16 -12,32 -17,48 -13,46 -24,209 -63,199 -20,1 -36,-15 -36,-34 -1,-40 5,-81 14,-121 9,-40 22,-79 37,-117 59,-151 150,-275 151,-275z"/>
    <path class="fil8 str0" d="M4039 1546c24,20 152,71 267,135 82,46 155,108 190,127"/>
    <path class="fil5" d="M5150 2473c-12,-15 -34,-19 -49,-7 -16,11 -19,33 -7,49 0,0 86,116 141,258 6,16 13,32 17,48 13,46 24,209 64,199 19,1 35,-15 35,-34 1,-40 -4,-81 -14,-121 -9,-40 -22,-79 -37,-117 -58,-151 -150,-275 -150,-275z"/>
    <path class="fil5" d="M3556 3009c-5,11 -15,18 -26,22l0 0c-11,4 -23,3 -34,-3 -11,-5 -19,-15 -22,-26l0 0c-4,-11 -3,-23 2,-34 1,-3 20,-40 55,-79 77,-87 283,-182 518,26 9,8 14,19 15,31 0,11 -3,23 -11,32 -9,10 -20,15 -31,15 -12,1 -23,-3 -33,-11 -177,-157 -340,-90 -394,-29 -24,27 -36,51 -38,55l0 0 -1 1z"/>
    <path class="fil1" d="M2591 3802c-45,4 -97,3 -139,-7 -5,-2 -9,-5 -12,-9 -3,-5 -4,-10 -3,-16l12 -48c3,-11 14,-17 24,-15 129,31 266,-27 350,-124l17 -20c4,-4 8,-6 14,-6 5,-1 10,1 15,5l18 17c67,59 148,94 238,91 36,-2 78,-9 111,-24 10,-4 22,0 26,10l21 45c2,5 2,11 0,16 -2,5 -5,9 -10,11 -32,15 -74,24 -110,28 -32,136 -113,346 -273,355 -48,3 -63,-3 -101,-31 -92,-67 -176,-164 -198,-278zm88 -18c11,60 46,114 88,159 62,64 116,117 194,40 54,-53 89,-150 109,-226 -77,-8 -147,-37 -209,-84 -52,51 -113,89 -182,111z"/>
    <path class="fil9" d="M2961 3983c54,-53 89,-150 109,-226 -77,-8 -147,-37 -209,-84 -52,51 -113,89 -182,111 11,60 46,114 88,159 62,64 116,117 194,40z"/>
   </g>
   <ellipse class="fil1" cx="2850" cy="5151" rx="250" ry="215"/>
  </g>
 </g>
</svg>
