<?xml version="1.0" encoding="UTF-8"?>
<!DOCTYPE svg PUBLIC "-//W3C//DTD SVG 1.1//EN" "http://www.w3.org/Graphics/SVG/1.1/DTD/svg11.dtd">
<!-- Creator: CorelDRAW X7 -->
<svg xmlns="http://www.w3.org/2000/svg" xml:space="preserve" width="65mm" height="65mm" version="1.1" style="shape-rendering:geometricPrecision; text-rendering:geometricPrecision; image-rendering:optimizeQuality; fill-rule:evenodd; clip-rule:evenodd"
viewBox="0 0 6500 6500"
 xmlns:xlink="http://www.w3.org/1999/xlink">
 <defs>
  <style type="text/css">
   <![CDATA[
    .str4 {stroke:black;stroke-width:70}
    .str3 {stroke:black;stroke-width:40}
    .str2 {stroke:black;stroke-width:20}
    .str0 {stroke:black;stroke-width:70;stroke-linecap:round;stroke-linejoin:round}
    .str5 {stroke:black;stroke-width:70;stroke-linecap:round;stroke-linejoin:round}
    .str6 {stroke:black;stroke-width:70;stroke-linecap:round;stroke-linejoin:round}
    .str1 {stroke:black;stroke-width:20;stroke-linecap:round;stroke-linejoin:round}
    .fil8 {fill:none}
    .fil2 {fill:black}
    .fil11 {fill:#3D3034}
    .fil9 {fill:#73DF73}
    .fil5 {fill:#BF8F17}
    .fil0 {fill:#D8FFD3}
    .fil10 {fill:#DE7673}
    .fil7 {fill:#E6F7BD}
    .fil12 {fill:#ECE873}
    .fil1 {fill:#FFC52F}
    .fil3 {fill:#FFDBDE}
    .fil6 {fill:black;fill-rule:nonzero}
    .fil4 {fill:#FF7694;fill-rule:nonzero}
   ]]>
  </style>
 </defs>
 <g id="Layer_x0020_1">
  <metadata id="CorelCorpID_0Corel-Layer"/>
  <g id="_2455159377488">
   <path class="fil0" d="M5364 4840c92,-88 169,-193 220,-319 0,0 -34,-128 -62,-209 -113,-321 -545,-1073 -2040,-641l-21 6c0,58 -95,105 -211,105 -116,0 -211,-47 -211,-105l-21 -6c-1495,-432 -1927,320 -2040,641 -28,81 -62,209 -62,209 108,266 335,441 560,555 850,432 3223,406 3888,-236z"/>
   <path class="fil1" d="M2044 1915c-11,-9 -11,-10 -23,-19 -43,-36 -90,-72 -112,-86 -206,-131 -767,-440 -1321,-321 -176,610 42,1323 139,1590 15,43 62,155 90,226l-1 6c-74,330 -97,751 80,1166 5,11 10,23 16,35 1,3 2,6 4,9 0,0 34,-128 62,-209 113,-321 545,-1073 2040,-641l21 6c0,-58 95,-104 211,-104 116,0 211,46 211,104l21 -6c1495,-432 1927,320 2040,641 28,81 62,209 62,209 2,-3 3,-6 4,-9 194,-426 172,-861 96,-1200 7,-17 15,-40 23,-59 24,-64 53,-138 66,-174 97,-267 315,-980 139,-1590 -554,-119 -1115,190 -1321,321 -28,18 -85,65 -135,106 -1,2 -5,5 -8,8l-1 0c-267,-108 -538,-164 -804,-189 -129,-11 -256,-23 -382,-23 -94,-1 -188,3 -281,11 -118,10 -239,11 -357,33 -139,26 -283,57 -425,100 -50,15 -103,41 -154,59zm3477 906c-39,-86 -67,-135 -67,-135 -143,-239 -348,-418 -569,-553 54,-43 138,-109 184,-134 147,-80 397,-194 599,-171 40,330 -40,638 -92,792 -12,38 -33,120 -49,184 0,4 -3,11 -6,17zm-3904 -689c-222,135 -428,315 -571,554 0,0 -27,48 -66,132 -16,-66 -44,-160 -56,-198 -52,-154 -132,-462 -92,-792 202,-23 452,91 599,171 47,26 131,90 186,133z"/>
   <path class="fil2" d="M3250 3790c126,0 227,-50 227,-113 0,-62 -101,-113 -227,-113 -126,0 -227,51 -227,113 0,63 101,113 227,113z"/>
   <circle class="fil3" cx="1743" cy="4048" r="240"/>
   <circle class="fil3" cx="4707" cy="4048" r="240"/>
   <path class="fil4" d="M1749 3917c10,-10 26,-10 36,0 9,9 9,25 0,35l-137 137c-10,9 -26,9 -35,0 -10,-10 -10,-26 0,-36l136 -136z"/>
   <path class="fil4" d="M1837 3984c9,-11 25,-11 35,-2 10,9 11,25 1,35l-147 161c-10,10 -25,11 -36,2 -10,-10 -10,-25 -1,-35l148 -161z"/>
   <path class="fil4" d="M4714 3917c10,-10 26,-10 35,0 10,9 10,25 0,35l-136 137c-10,9 -26,9 -36,0 -10,-10 -10,-26 0,-36l137 -136z"/>
   <path class="fil4" d="M4801 3984c10,-11 26,-11 36,-2 10,9 10,25 1,35l-148 161c-9,10 -25,11 -35,2 -10,-10 -11,-25 -1,-35l147 -161z"/>
   <path class="fil5" d="M5668 1828c40,330 -40,638 -92,792 -14,42 -38,139 -54,205 -39,-89 -68,-139 -68,-139 -143,-239 -349,-419 -571,-554 54,-43 138,-107 186,-133 147,-80 397,-194 599,-171z"/>
   <path class="fil5" d="M832 1828c-40,330 40,638 92,792 14,42 38,139 54,205 39,-89 68,-139 68,-139 143,-239 349,-419 571,-554 -54,-43 -138,-107 -186,-133 -147,-80 -397,-194 -599,-171z"/>
   <g>
    <path class="fil2" d="M2069 1844c178,-64 364,-112 550,-145 25,-4 50,-9 75,-13 31,-5 61,-9 91,-13 114,-14 310,-28 420,-31 224,-5 468,19 677,56 187,33 373,82 551,146 38,-32 80,-68 120,-93 169,-107 356,-198 546,-262 265,-89 552,-128 828,-69 26,6 45,24 53,50 147,511 38,1139 -141,1632 -21,59 -44,118 -67,176 -5,13 -10,26 -15,39 88,411 71,835 -104,1222l-3 8 0 0 0 0 0 0 0 0 -1 0 0 0 0 0 0 1 0 0 0 0 0 1c-54,130 -135,244 -236,341 -437,422 -1457,530 -2037,544 -361,9 -731,-8 -1089,-61 -275,-40 -594,-108 -843,-235 -255,-129 -482,-319 -593,-589l0 -1 0 0 0 0 0 -1 0 0 0 0 -1 0 0 0 0 0 0 0 0 0 -3 -8c-5,-11 -10,-23 -15,-35 -162,-379 -176,-795 -88,-1193 -28,-69 -58,-139 -83,-209 -179,-493 -288,-1121 -141,-1632 8,-26 27,-44 53,-50 276,-59 563,-20 828,69 190,64 377,155 546,262 40,25 83,60 122,93zm813 -110c0,0 -389,27 -827,189 -51,-42 -119,-96 -146,-113 -206,-131 -767,-440 -1321,-321 -176,610 42,1323 139,1590 15,43 62,155 90,226l-1 6 -3 15 0 1 -3 14 -1 1 -3 14 0 2 -3 13 0 3 -3 12 0 2 -1 8 -2 8 -2 10 0 4 -2 12 -1 4 -2 12 -1 4 -1 10 -2 9 -1 7 -1 7 -2 11 0 5 -2 11 -1 6 -1 11 0 3 -2 14 0 2c-34,284 -17,609 120,931 5,11 10,23 16,35 1,3 2,6 4,9 108,266 335,441 560,555 850,432 3223,406 3888,-236 92,-88 169,-193 220,-319 2,-3 3,-6 4,-9 20,-44 38,-87 53,-131l1 -2c2,-6 4,-11 6,-17l0 -2c2,-5 4,-11 6,-16l1 -3 5 -16 1 -2c17,-55 31,-109 42,-163l0 -2c1,-6 2,-12 3,-17l1 -1c2,-12 4,-24 6,-36l1 -2c2,-11 3,-23 5,-35l0 -1c7,-48 13,-95 16,-142l0 -2 1 -17 0 0c0,-6 1,-12 1,-18l0 0 1 -17 0 -2 0 -16 0 -1 1 -16 0 -2 0 -15 0 -5 0 -13 0 -4c0,-10 0,-21 0,-32 0,-6 0,-11 0,-17l0 0 -1 -17 0 -12 0 -6 -1 -15 0 -2 -1 -15 0 -2 -1 -13 0 -6 -1 -11 0 -6 -1 -13 -1 -3 -1 -13 0 -5 -1 -12 -1 -5 -1 -12 0 -4 -2 -12 -1 -8 -1 -9 0 -1 -2 -15 0 -1 -2 -16 0 -1 -2 -15 0 -2 -2 -14 -1 -2 -1 -6 -1 -12 -1 -4 -2 -11 -1 -7 -2 -10 -1 -6 -1 -9 -2 -8 -2 -10 0 -4 -3 -12 -1 -5 -2 -10 -1 -5 0 -3 -1 -6 -2 -9 0 0 -3 -14 -1 -1 -3 -15c7,-17 15,-40 23,-59 24,-64 53,-138 66,-174 97,-267 315,-980 139,-1590 -554,-119 -1115,190 -1321,321 -28,18 -85,65 -135,106 -1,2 -5,5 -8,8l-1 0c-305,-113 -586,-161 -729,-179 -63,-8 -100,-11 -100,-11 -290,-31 -453,-28 -736,0zm2857 2062c0,-10 0,-21 0,-32l0 32zm-2662 -178c19,12 31,32 32,55 7,9 29,19 38,22 32,12 69,17 103,17 34,0 71,-5 103,-17 9,-3 31,-13 38,-22 1,-23 13,-43 32,-55 24,17 38,37 38,59 0,58 -95,105 -211,105 -116,0 -211,-47 -211,-105 0,-22 14,-42 38,-59z"/>
   </g>
   <path class="fil2" d="M2852 4126c-5,-2 -9,-5 -12,-9 -3,-5 -4,-10 -3,-16l12 -48c3,-11 14,-17 24,-15 129,31 266,-27 350,-124l17 -20c4,-4 8,-6 14,-6 5,-1 10,1 15,5l18 17c67,59 148,94 238,91 36,-2 78,-9 111,-24 10,-4 22,0 26,10l21 45c2,5 2,11 0,16 -2,5 -5,9 -10,11 -97,44 -236,37 -331,-6 -28,-13 -55,-30 -81,-49 -95,103 -272,157 -409,122z"/>
   <path class="fil6" d="M2036 3283c-22,0 -39,-19 -38,-41 0,-22 18,-39 40,-38l461 11c22,0 40,18 39,40 -1,22 -19,40 -41,39l-461 -11z"/>
   <path class="fil6" d="M4001 3283c-22,0 -39,-19 -39,-41 1,-22 19,-39 41,-38l461 11c22,0 39,18 39,40 -1,22 -19,40 -41,39l-461 -11z"/>
   <path class="fil7 str0" d="M3563 4054l-159 -25 -110 -30c0,0 141,210 110,413 -31,202 38,333 38,333 0,0 59,83 139,59 -18,104 64,205 64,205 110,57 92,-223 92,-223 219,-117 -73,-603 -174,-732z"/>
   <path class="fil8 str1" d="M3429 4715c83,-67 234,-202 315,-352"/>
   <path class="fil8 str2" d="M3402 4427c71,-59 171,-162 215,-296"/>
   <path class="fil9" d="M6448 2522c-190,-351 -713,-1077 -1908,-1393 -257,-67 -545,-116 -868,-138 -145,-10 -286,-14 -422,-12 -136,-2 -277,2 -422,12 -323,22 -611,71 -868,138 -1195,316 -1718,1042 -1908,1393 -32,-450 123,-1002 864,-1415 269,-149 553,-256 840,-331 839,-220 2149,-220 2988,0 287,75 571,182 840,331 741,413 896,965 864,1415z"/>
   <path class="fil10" d="M5357 2367c-395,-236 -885,-361 -1284,-428 -423,-70 -745,-75 -745,-75 0,0 -27,0 -78,1 -51,-1 -78,-1 -78,-1 0,0 -322,5 -745,75 -399,67 -889,192 -1284,428 -532,318 -776,674 -881,882 -36,-71 -89,-185 -133,-327 160,-358 657,-1087 2090,-1344 0,0 0,0 0,0l80 -14c340,-55 657,-74 951,-68 294,-6 611,13 951,68l80 14c0,0 0,0 0,0 1433,257 1930,986 2090,1344 -44,142 -96,256 -133,327 -105,-208 -349,-564 -881,-882z"/>
   <path class="fil11" d="M5174 2809c-491,-227 -966,-338 -1381,-386 -196,-22 -379,-31 -543,-30 -164,-1 -347,8 -543,30 -415,48 -890,159 -1381,386 0,0 -432,225 -1019,521 0,0 -18,-29 -45,-81 105,-208 349,-564 881,-882 395,-236 885,-361 1284,-428 423,-70 745,-75 745,-75 0,0 27,0 78,1 51,-1 78,-1 78,-1 0,0 322,5 745,75 399,67 889,192 1284,428 532,318 776,674 881,882 -27,52 -45,81 -45,81 -587,-296 -1019,-521 -1019,-521z"/>
   <path class="fil12 str3" d="M6371 2922c-160,-358 -657,-1087 -2090,-1344l-80 -14c-340,-55 -657,-74 -951,-68 -294,-6 -611,13 -951,68l-80 14c-1433,257 -1930,986 -2090,1344 -36,-117 -66,-253 -77,-400 190,-351 713,-1077 1908,-1393 257,-67 545,-116 868,-138 145,-10 286,-14 422,-12 136,-2 277,2 422,12 323,22 611,71 868,138 1195,316 1718,1042 1908,1393 -11,147 -41,283 -77,400z"/>
   <path class="fil8 str4" d="M52 2522c-32,-450 123,-1002 864,-1415 269,-149 553,-256 840,-331 839,-220 2149,-220 2988,0 287,75 571,182 840,331 741,413 896,965 864,1415 -11,147 -41,283 -77,400 -44,142 -96,256 -133,327 -27,52 -45,81 -45,81 -587,-296 -1019,-521 -1019,-521 -491,-227 -966,-338 -1381,-386 -196,-22 -379,-31 -543,-30 -164,-1 -347,8 -543,30 -415,48 -890,159 -1381,386 0,0 -432,225 -1019,521 0,0 -18,-29 -45,-81 -36,-71 -89,-185 -133,-327 -36,-117 -66,-253 -77,-400z"/>
   <g id="_2455159379856">
    <path class="fil1 str5" d="M838 5441c107,113 26,195 26,195 23,16 35,32 41,47 32,85 -105,154 -143,43 -13,-39 -4,-86 7,-87 0,0 -89,-49 -10,-190 0,0 -171,-29 -64,-285 -46,-86 -120,-247 23,-310 0,0 -283,-211 1,-383 0,0 -267,-111 -77,-366 0,0 -307,-126 -112,-430 -164,-35 -203,-293 -86,-417 41,-44 106,-64 207,-20 0,0 222,106 50,386 258,231 60,474 60,474 222,143 59,370 59,370 263,161 29,384 29,384 176,106 -3,319 -3,319 60,77 72,201 -8,270z"/>
    <g>
     <path class="fil1" d="M142 5524c-109,119 -29,208 -29,208 -23,16 -36,33 -42,49 -34,90 102,166 142,48 14,-41 5,-91 -5,-93 0,0 89,-51 13,-201 0,0 172,-28 68,-302 48,-91 125,-260 -17,-330 0,0 287,-220 5,-408 0,0 269,-112 84,-387 0,0 309,-128 119,-455 165,-34 208,-308 93,-441 -41,-48 -105,-70 -206,-25 0,0 -225,108 -58,409 -261,241 -67,503 -67,503 -225,148 -66,392 -66,392 -265,167 -35,408 -35,408 -178,109 -2,338 -2,338 -62,82 -76,213 3,287z"/>
     <path id="1" class="fil6" d="M133 5760l-41 -57 -5 52 -1 -1 -1 -1 -2 -2 -2 -2 -2 -3 -2 -4 -3 -4 -3 -5 -2 -5 -3 -5 -3 -7 -3 -6 -2 -7 -2 -8 -2 -8 -2 -8 -1 -10 -1 -9 0 -10 0 -10 1 -10 1 -11 3 -11 3 -12 4 -11 5 -12 6 -12 6 -12 8 -12 9 -12 9 -12 11 -12 52 47 -9 10 -7 9 -7 10 -6 8 -4 9 -4 8 -4 8 -2 7 -2 8 -2 6 -1 7 0 6 0 6 0 6 0 6 1 5 1 5 1 5 1 4 2 4 1 4 2 4 2 3 1 3 2 3 1 2 2 2 1 1 0 1 1 1 0 0 0 0 -6 51zm6 -51c13,14 11,36 -3,49 -14,13 -37,12 -49,-3l52 -46zm-35 84l-66 -24 0 0 1 -2 1 -3 1 -2 1 -2 1 -2 1 -2 1 -3 1 -2 2 -2 1 -2 1 -2 2 -2 2 -3 1 -2 2 -2 1 -2 2 -2 2 -2 2 -2 2 -2 2 -2 2 -2 2 -2 2 -2 2 -2 2 -1 2 -2 3 -2 2 -2 2 -2 3 -2 2 -2 41 57 -2 2 -1 1 -2 1 -2 1 -1 2 -2 1 -1 1 -1 1 -1 1 -2 1 -1 2 -1 1 -1 1 -1 1 -1 1 -1 1 -1 1 0 1 -1 1 -1 1 0 1 -1 1 -1 1 0 1 -1 1 0 0 -1 1 0 1 0 1 -1 1 0 1 0 0 0 0zm76 25l66 23 0 0 -5 13 -6 12 -7 11 -7 10 -9 9 -9 8 -9 6 -11 6 -10 4 -11 3 -11 1 -11 0 -10 -1 -11 -2 -9 -2 -10 -4 -9 -5 -9 -5 -8 -6 -8 -7 -7 -8 -6 -8 -6 -9 -5 -9 -5 -10 -3 -10 -2 -11 -1 -11 0 -12 1 -12 2 -11 4 -12 66 24 -2 5 -1 5 0 5 0 4 0 4 1 4 1 4 2 4 2 3 2 4 3 3 3 4 3 2 3 3 4 2 4 2 3 1 4 1 3 1 4 0 3 0 3 0 3 -1 3 -1 3 -2 3 -2 3 -2 3 -4 3 -4 3 -6 4 -6 3 -8 0 0zm11 -112l34 60 -10 -64 9 3 7 4 5 5 4 4 3 4 2 4 1 4 2 4 1 3 1 4 1 4 1 3 1 4 0 4 1 4 0 5 1 4 0 4 0 5 0 4 0 5 0 4 0 5 -1 5 0 5 -1 5 -1 5 -1 5 -1 5 -1 5 -1 5 -2 5 -66 -23 1 -3 0 -3 1 -3 1 -3 0 -3 1 -3 0 -3 1 -3 0 -3 0 -3 0 -3 0 -3 0 -3 0 -3 0 -2 0 -3 -1 -2 0 -3 0 -2 -1 -1 0 -2 0 -2 -1 -1 0 0 0 -1 0 0 0 1 1 2 2 2 3 2 5 4 8 2 -10 -64zm10 64c-19,-4 -31,-22 -27,-41 4,-19 22,-31 41,-27l-14 68zm14 -269l12 69 25 -51 7 15 7 15 5 14 5 14 3 13 3 13 2 12 2 12 0 11 1 11 -1 11 -1 10 -2 9 -2 9 -3 9 -3 8 -3 7 -4 7 -3 7 -4 6 -4 5 -4 5 -4 5 -4 3 -3 4 -4 3 -3 2 -3 3 -2 1 -2 2 -2 1 -1 0 -34 -60 -1 0 0 0 0 0 1 -1 1 0 1 -1 1 -2 2 -1 2 -2 1 -2 2 -2 2 -3 2 -3 2 -3 2 -3 1 -4 2 -4 1 -5 2 -5 1 -5 0 -6 1 -7 0 -6 -1 -8 -1 -8 -1 -9 -2 -9 -3 -10 -4 -10 -4 -12 -5 -12 -6 -12 25 -50zm-25 50c-9,-17 -2,-38 15,-47 17,-9 39,-2 47,15l-62 32zm68 -334l62 32 2 -28 9 26 8 25 7 24 4 22 4 22 2 20 1 19 0 18 -1 17 -2 17 -4 15 -4 14 -5 13 -5 13 -7 11 -7 10 -7 10 -8 8 -8 8 -8 6 -7 6 -8 5 -8 4 -7 4 -6 3 -7 2 -5 2 -5 2 -4 1 -3 1 -3 0 -1 1 -12 -69 0 0 0 0 1 -1 2 0 3 -1 3 -1 3 -1 4 -2 4 -2 4 -3 5 -2 4 -4 5 -3 4 -5 4 -4 5 -6 4 -6 3 -6 4 -8 3 -8 3 -9 2 -10 1 -12 1 -12 0 -14 -1 -15 -1 -17 -3 -18 -5 -19 -5 -21 -7 -22 -8 -24 1 -28zm-1 28c-7,-18 2,-38 20,-45 18,-6 38,3 45,21l-65 24zm-6 -370l42 56 -6 -59 15 8 14 9 13 10 11 10 10 11 9 12 8 12 6 13 5 13 4 14 3 13 2 13 1 14 0 13 0 14 -2 13 -2 14 -2 13 -3 13 -3 12 -4 13 -4 13 -4 12 -5 12 -5 11 -4 12 -5 11 -5 11 -5 10 -5 10 -5 9 -5 9 -62 -32 5 -9 4 -8 5 -10 4 -9 5 -10 4 -10 5 -10 4 -11 4 -10 4 -11 3 -11 3 -10 3 -11 2 -10 2 -11 2 -10 1 -10 0 -10 0 -9 -1 -9 -1 -9 -2 -8 -2 -8 -3 -8 -3 -7 -5 -7 -5 -6 -6 -7 -6 -6 -8 -6 -9 -6 -11 -5 -5 -60zm5 60c-17,-9 -24,-30 -15,-47 8,-18 29,-25 46,-16l-31 63zm8 -472l27 65 6 -62 26 19 24 20 21 20 17 20 15 21 12 21 10 21 7 21 5 21 2 21 0 21 -2 20 -4 19 -5 19 -6 17 -7 18 -8 16 -9 15 -9 15 -10 13 -10 13 -9 12 -10 11 -9 10 -9 9 -8 8 -8 7 -6 6 -6 4 -4 4 -2 2 -2 1 -42 -56 0 0 2 -1 3 -3 5 -4 5 -5 6 -6 7 -7 8 -7 8 -9 8 -9 8 -10 9 -11 8 -11 7 -12 7 -12 6 -13 6 -13 5 -13 3 -13 3 -14 1 -13 0 -14 -2 -14 -3 -13 -4 -15 -7 -14 -8 -15 -11 -15 -14 -16 -17 -16 -19 -16 -23 -16 6 -62zm-6 62c-16,-11 -20,-33 -10,-49 11,-16 33,-20 49,-10l-39 59zm89 -449l27 64 16 -52 17 27 14 27 13 25 9 25 8 24 5 23 3 23 2 22 -1 21 -2 20 -4 19 -5 18 -7 18 -7 16 -9 15 -9 14 -10 13 -10 12 -10 11 -11 10 -10 9 -11 9 -10 7 -9 7 -9 5 -8 5 -8 5 -6 3 -6 3 -4 2 -3 1 -1 1 -27 -65 0 0 1 -1 3 -1 4 -2 5 -3 6 -3 7 -4 7 -4 8 -6 8 -6 8 -6 8 -7 8 -8 8 -9 8 -9 7 -9 6 -10 7 -11 5 -12 4 -12 4 -12 3 -14 1 -14 1 -15 -1 -16 -3 -17 -4 -18 -6 -19 -8 -20 -10 -21 -12 -23 -15 -24 15 -51zm-15 51c-11,-16 -7,-37 9,-48 16,-11 38,-7 49,9l-58 39zm141 -508l14 69 23 -52 17 32 15 31 12 29 9 29 7 28 4 27 2 27 0 25 -2 24 -3 23 -6 21 -7 21 -8 20 -9 18 -10 17 -11 16 -12 15 -12 13 -12 13 -12 11 -12 11 -12 9 -12 9 -11 7 -10 7 -9 5 -9 5 -7 4 -6 3 -5 2 -3 1 -2 1 -27 -64 0 -1 3 0 3 -2 5 -2 6 -4 6 -3 8 -5 9 -5 9 -7 9 -7 10 -7 10 -9 10 -9 10 -10 9 -11 9 -11 9 -13 8 -13 7 -14 6 -14 5 -16 4 -16 3 -18 1 -18 0 -19 -1 -21 -4 -22 -6 -23 -7 -24 -10 -26 -13 -27 -16 -28 24 -52zm-24 52c-9,-17 -4,-38 13,-48 17,-9 38,-4 48,13l-61 35zm97 -437l53 -45 0 0 12 15 11 15 10 17 8 17 8 17 6 18 6 18 4 19 4 19 2 19 2 19 0 19 0 19 -1 19 -2 19 -4 18 -4 19 -4 18 -6 17 -7 18 -8 16 -8 16 -10 16 -11 14 -11 14 -13 13 -13 12 -15 10 -16 10 -16 8 -18 6 -18 5 -14 -69 11 -3 12 -4 10 -5 10 -6 10 -7 9 -8 9 -9 8 -10 8 -10 7 -12 7 -12 6 -13 5 -13 5 -14 3 -15 4 -15 2 -15 2 -15 1 -16 0 -16 0 -15 -2 -16 -2 -15 -2 -15 -4 -15 -4 -15 -5 -14 -6 -14 -7 -13 -7 -12 -8 -12 -9 -11 0 0zm-164 -16l-31 -63 1 0 11 -5 10 -4 10 -3 10 -3 9 -3 10 -3 9 -2 9 -2 9 -1 9 -1 9 0 9 -1 8 0 8 1 9 1 8 1 7 2 8 2 8 2 7 2 7 3 7 3 6 4 7 4 6 3 6 5 6 4 5 5 6 4 5 5 5 6 4 5 -53 45 -3 -3 -3 -3 -3 -3 -4 -3 -3 -3 -3 -3 -4 -2 -3 -3 -4 -2 -4 -2 -4 -2 -4 -1 -4 -2 -4 -1 -5 -1 -5 -1 -4 -1 -5 0 -6 -1 -5 0 -6 0 -6 1 -6 0 -6 1 -7 2 -7 1 -7 2 -8 2 -7 3 -8 3 -9 3 -8 4 1 -1zm-1 1c-18,8 -38,0 -46,-18 -8,-18 0,-38 17,-46l29 64zm-48 403l-47 -52 -7 43 -15 -29 -14 -28 -11 -27 -9 -27 -7 -25 -5 -24 -3 -24 -2 -22 0 -22 1 -20 2 -20 4 -19 5 -17 6 -17 6 -16 8 -14 7 -14 9 -12 8 -12 9 -10 9 -10 9 -8 8 -8 8 -7 8 -6 7 -5 6 -4 6 -4 5 -3 3 -2 3 -1 1 -1 31 63 0 0 -1 1 -2 1 -3 2 -4 2 -5 3 -5 4 -6 5 -6 5 -6 5 -7 7 -6 7 -7 8 -6 8 -6 9 -6 10 -5 11 -5 11 -4 12 -4 13 -3 14 -2 15 0 16 0 16 1 18 3 19 4 20 6 22 8 22 10 24 11 25 14 26 -7 43zm7 -43c9,17 3,38 -14,48 -16,9 -38,3 -47,-14l61 -34zm-79 549l-38 -59 -9 51 -1 -2 -2 -3 -3 -4 -4 -5 -4 -7 -5 -9 -5 -9 -6 -11 -6 -12 -5 -14 -6 -14 -6 -15 -5 -17 -5 -17 -4 -18 -4 -19 -3 -20 -2 -21 0 -22 0 -22 2 -22 3 -24 5 -23 7 -24 9 -25 10 -24 13 -25 15 -24 17 -25 20 -24 22 -25 25 -24 47 52 -22 21 -19 21 -17 21 -14 21 -13 21 -10 20 -9 20 -7 20 -6 19 -4 20 -3 18 -1 19 0 18 0 18 2 17 2 16 3 16 4 15 4 15 4 14 5 13 5 12 5 11 5 10 5 10 4 8 4 7 4 5 3 5 2 3 1 2 0 0 -9 50zm9 -50c11,15 8,37 -7,49 -16,11 -38,8 -49,-7l56 -42zm-75 443l-38 -59 -10 48 -1 -1 -2 -2 -2 -4 -3 -5 -3 -7 -4 -7 -5 -9 -4 -10 -5 -11 -5 -11 -4 -13 -5 -13 -4 -14 -4 -15 -3 -16 -3 -16 -2 -17 -1 -18 -1 -17 1 -19 2 -18 4 -19 4 -19 7 -19 8 -19 10 -19 12 -18 13 -18 16 -18 18 -17 20 -16 22 -16 38 59 -18 13 -16 13 -14 13 -12 13 -10 14 -9 14 -7 13 -6 14 -4 14 -4 14 -2 14 -2 14 -1 14 1 13 1 14 1 14 2 13 3 12 3 13 4 12 4 11 4 10 4 10 4 9 3 9 4 7 3 6 3 5 3 5 1 2 1 2 0 0 -10 49zm10 -49c11,16 6,38 -10,49 -16,10 -38,6 -48,-11l58 -38zm-46 456l-36 -59 -7 54 -2 -2 -2 -2 -3 -4 -4 -5 -6 -6 -5 -8 -7 -8 -7 -10 -7 -11 -7 -11 -8 -13 -7 -13 -7 -15 -7 -15 -6 -16 -5 -17 -5 -17 -4 -18 -2 -19 -2 -19 1 -20 2 -20 4 -20 6 -20 8 -21 10 -20 13 -20 15 -19 17 -19 20 -18 23 -18 25 -17 38 59 -22 14 -18 15 -16 15 -14 14 -11 15 -9 14 -8 14 -5 14 -4 14 -3 15 -1 13 -1 14 1 14 2 14 3 14 4 13 4 13 5 13 5 13 6 11 6 12 7 10 6 10 6 9 6 9 5 7 5 6 4 5 4 5 2 2 2 2 0 0 -7 54zm7 -54c14,14 13,37 -1,50 -14,13 -36,13 -49,-1l50 -49zm1 384l-56 -42 0 42 -1 -1 -2 -2 -2 -3 -3 -5 -4 -6 -5 -7 -5 -8 -5 -9 -6 -9 -6 -11 -5 -11 -6 -12 -6 -13 -6 -14 -5 -13 -4 -15 -5 -15 -3 -15 -3 -16 -2 -16 -1 -17 0 -17 2 -16 3 -17 5 -17 7 -17 8 -16 10 -16 13 -15 14 -15 16 -13 19 -12 36 59 -13 9 -11 9 -9 10 -8 9 -6 10 -6 10 -4 10 -3 10 -2 11 -1 12 0 11 1 12 1 12 2 12 3 12 3 12 4 11 5 12 4 11 5 11 5 10 5 10 5 9 5 9 5 8 4 6 4 6 3 5 3 4 2 3 1 2 1 0 0 42zm0 -42c11,15 8,37 -7,49 -15,12 -37,9 -49,-7l56 -42zm1 332l-52 -47 2 49 -9 -9 -8 -9 -7 -9 -7 -10 -6 -10 -5 -10 -5 -11 -4 -10 -4 -11 -3 -11 -3 -11 -2 -11 -1 -12 -1 -11 0 -11 0 -11 0 -12 1 -11 2 -11 1 -11 3 -11 2 -11 4 -11 3 -11 4 -10 4 -10 5 -11 5 -10 5 -9 6 -10 6 -9 7 -9 56 42 -5 7 -5 7 -4 7 -4 7 -4 8 -4 8 -3 7 -3 8 -3 9 -2 8 -2 8 -2 9 -1 8 -1 8 -1 9 0 8 0 9 0 8 1 8 1 8 1 8 2 8 2 7 2 8 3 7 3 7 4 7 4 6 4 6 5 6 5 6 6 6 2 49zm-2 -49c14,13 15,35 1,49 -13,14 -35,15 -49,2l48 -51z"/>
    </g>
    <path class="fil1 str0" d="M431 5227c-107,113 -26,195 -26,195 -22,16 -35,32 -41,48 -32,84 105,153 143,42 13,-39 4,-85 -6,-87 0,0 88,-49 9,-189 0,0 172,-30 64,-286 46,-86 120,-247 -23,-310 0,0 284,-211 -1,-383 0,0 267,-111 77,-366 0,0 308,-126 112,-430 164,-35 203,-293 86,-417 -41,-44 -106,-64 -206,-20 0,0 -223,106 -51,386 -258,232 -60,474 -60,474 -222,143 -59,370 -59,370 -263,161 -29,384 -29,384 -176,106 3,319 3,319 -60,77 -72,201 8,270z"/>
   </g>
   <g>
    <path class="fil1 str0" d="M5662 5441c-107,113 -26,195 -26,195 -23,16 -35,32 -41,47 -32,85 105,154 143,43 13,-39 4,-86 -7,-87 0,0 89,-49 10,-190 0,0 171,-29 64,-285 46,-86 120,-247 -23,-310 0,0 284,-211 -1,-383 0,0 267,-111 77,-366 0,0 307,-126 112,-430 164,-35 203,-293 86,-417 -41,-44 -106,-64 -207,-20 0,0 -222,106 -50,386 -258,231 -60,474 -60,474 -222,143 -59,370 -59,370 -263,161 -29,384 -29,384 -176,106 3,319 3,319 -60,77 -72,201 8,270z"/>
    <g>
     <path class="fil1" d="M6358 5524c109,119 29,208 29,208 23,16 36,33 42,49 34,90 -102,166 -142,48 -14,-41 -5,-91 5,-93 0,0 -89,-51 -13,-201 0,0 -172,-28 -68,-302 -48,-91 -125,-260 17,-330 0,0 -287,-220 -5,-408 0,0 -269,-112 -84,-387 0,0 -309,-128 -119,-455 -164,-34 -208,-308 -93,-441 41,-48 105,-70 206,-25 0,0 225,108 58,409 261,241 67,503 67,503 225,148 66,392 66,392 265,167 35,408 35,408 178,109 2,338 2,338 62,82 76,213 -3,287z"/>
     <path id="1" class="fil6" d="M6367 5760l-6 -51 0 0 0 0 1 -1 0 -1 1 -1 2 -2 1 -2 2 -3 1 -3 2 -3 2 -4 1 -4 2 -4 1 -4 1 -5 1 -5 1 -5 0 -6 0 -6 0 -6 0 -6 -1 -7 -2 -6 -2 -8 -2 -7 -4 -8 -4 -8 -4 -9 -6 -8 -7 -10 -7 -9 -9 -10 52 -47 11 12 9 12 9 12 8 12 6 12 6 12 5 12 4 11 3 12 3 11 1 11 1 10 0 10 0 10 -1 9 -1 10 -2 8 -2 8 -2 8 -2 7 -3 6 -3 7 -3 5 -2 5 -3 5 -3 4 -2 4 -2 3 -2 2 -2 2 -1 1 -1 1 -5 -52 -41 57zm-6 -51l52 46c-12,15 -35,16 -49,3 -14,-13 -16,-35 -3,-49zm35 84l0 0 0 0 0 -1 -1 -1 0 -1 0 -1 -1 -1 0 0 -1 -1 0 -1 -1 -1 0 -1 -1 -1 -1 -1 -1 -1 0 -1 -1 -1 -1 -1 -1 -1 -1 -1 -1 -1 -1 -1 -1 -2 -1 -1 -2 -1 -1 -1 -1 -1 -2 -1 -1 -2 -2 -1 -2 -1 -1 -1 -2 -2 41 -57 2 2 3 2 2 2 2 2 3 2 2 2 2 1 2 2 2 2 2 2 3 2 1 2 2 2 2 2 2 2 2 2 1 2 2 2 1 2 2 3 2 2 1 2 1 2 2 2 1 2 1 3 1 2 1 2 1 2 1 2 1 3 1 2 0 0 -66 24zm-76 25l0 0 3 8 4 6 3 6 3 4 3 4 3 2 3 2 3 2 3 1 3 1 3 0 3 0 4 0 3 -1 4 -1 3 -1 4 -2 4 -2 3 -3 3 -2 3 -4 3 -3 2 -4 2 -3 2 -4 1 -4 1 -4 0 -4 0 -4 0 -5 -1 -5 -2 -5 66 -24 4 12 2 11 1 12 0 12 -1 11 -2 11 -3 10 -5 10 -5 9 -6 9 -6 8 -7 8 -8 7 -8 6 -9 5 -9 5 -10 4 -9 2 -11 2 -10 1 -11 0 -11 -1 -11 -3 -10 -4 -11 -6 -9 -6 -9 -8 -9 -9 -7 -10 -7 -11 -6 -12 -5 -13 0 0 66 -23zm-11 -112l-10 64 8 -2 5 -4 3 -2 2 -2 1 -2 0 -1 0 0 0 1 0 0 -1 1 0 2 0 2 -1 1 0 2 0 3 -1 2 0 3 0 2 0 3 0 3 0 3 0 3 0 3 0 3 1 3 0 3 1 3 0 3 1 3 1 3 0 3 1 3 -66 23 -2 -5 -1 -5 -1 -5 -1 -5 -1 -5 -1 -5 -1 -5 0 -5 -1 -5 0 -5 0 -4 0 -5 0 -4 0 -5 0 -4 1 -4 0 -5 1 -4 0 -4 1 -4 1 -3 1 -4 1 -4 1 -3 2 -4 1 -4 2 -4 3 -4 4 -4 5 -5 7 -4 9 -3 -10 64 34 -60zm-10 64l-14 -68c19,-4 37,8 41,27 4,19 -8,37 -27,41zm-14 -269l25 50 -6 12 -5 12 -4 12 -4 10 -2 10 -3 9 -1 9 -1 8 -1 8 0 6 1 7 0 6 1 5 2 5 1 5 2 4 1 4 2 3 2 3 2 3 2 3 2 2 1 2 2 2 2 1 1 2 1 1 1 0 1 1 0 0 0 0 -1 0 -34 60 -1 0 -2 -1 -2 -2 -2 -1 -3 -3 -3 -2 -4 -3 -3 -4 -4 -3 -4 -5 -4 -5 -4 -5 -4 -6 -3 -7 -4 -7 -3 -7 -3 -8 -3 -9 -2 -9 -2 -9 -1 -10 -1 -11 1 -11 0 -11 2 -12 2 -12 3 -13 3 -13 5 -14 5 -14 7 -15 7 -15 25 51 12 -69zm25 50l-62 -32c8,-17 30,-24 47,-15 17,9 24,30 15,47zm-68 -334l1 28 -8 24 -7 22 -5 21 -5 19 -3 18 -1 17 -1 15 0 14 1 12 1 12 2 10 3 9 3 8 4 8 3 6 4 6 5 6 4 4 4 5 5 3 4 4 5 2 4 3 4 2 4 2 3 1 3 1 3 1 2 0 1 1 0 0 0 0 -12 69 -1 -1 -3 0 -3 -1 -4 -1 -5 -2 -5 -2 -7 -2 -6 -3 -7 -4 -8 -4 -8 -5 -7 -6 -8 -6 -8 -8 -8 -8 -7 -10 -7 -10 -7 -11 -5 -13 -5 -13 -4 -14 -4 -15 -2 -17 -1 -17 0 -18 1 -19 2 -20 4 -22 5 -22 6 -24 8 -25 9 -26 2 28 62 -32zm1 28l-65 -24c7,-18 27,-27 45,-21 18,7 27,27 20,45zm6 -370l-5 60 -11 5 -9 6 -8 6 -6 6 -6 7 -5 6 -5 7 -3 7 -3 8 -2 8 -2 8 -1 9 -1 9 0 9 0 10 1 10 2 10 2 11 2 10 3 11 3 10 3 11 4 11 4 10 4 11 5 10 4 10 5 10 4 9 5 10 4 8 5 9 -62 32 -5 -9 -5 -9 -5 -10 -5 -10 -5 -11 -5 -11 -4 -12 -5 -11 -5 -12 -4 -12 -4 -13 -4 -13 -3 -12 -3 -13 -2 -13 -2 -14 -2 -13 0 -14 0 -13 1 -14 2 -13 3 -13 4 -14 5 -13 6 -13 8 -12 9 -12 10 -11 11 -10 13 -10 14 -9 15 -8 -6 59 42 -56zm-5 60l-31 -63c17,-9 38,-2 47,16 8,17 1,38 -16,47zm-8 -472l6 62 -23 16 -19 16 -17 16 -14 16 -11 15 -8 15 -7 14 -4 15 -3 13 -2 14 0 14 1 13 3 14 3 13 5 13 6 13 6 13 7 12 7 12 8 11 9 11 8 10 8 9 8 9 8 7 7 7 6 6 5 5 5 4 3 3 2 1 0 0 -42 56 -2 -1 -2 -2 -4 -4 -6 -4 -6 -6 -8 -7 -8 -8 -9 -9 -9 -10 -10 -11 -9 -12 -10 -13 -10 -13 -9 -15 -9 -15 -8 -16 -7 -18 -6 -17 -5 -19 -4 -19 -2 -20 0 -21 2 -21 5 -21 7 -21 10 -21 12 -21 15 -21 17 -20 21 -20 24 -20 26 -19 6 62 27 -65zm6 62l-39 -59c16,-10 38,-6 49,10 11,16 6,38 -10,49zm-89 -449l15 51 -15 24 -12 23 -10 21 -8 20 -6 19 -4 18 -3 17 -1 16 1 15 1 14 3 14 4 12 4 12 5 12 7 11 6 10 7 9 8 9 8 9 8 8 8 7 9 6 7 6 8 6 7 4 7 4 6 3 5 3 4 2 3 1 1 1 0 0 -27 65 -1 -1 -3 -1 -4 -2 -6 -3 -6 -3 -8 -5 -8 -5 -9 -5 -9 -7 -10 -7 -11 -9 -10 -9 -11 -10 -10 -11 -10 -12 -10 -13 -9 -14 -9 -15 -7 -16 -7 -18 -5 -18 -4 -19 -2 -20 -1 -21 2 -22 3 -23 5 -23 8 -24 10 -25 12 -25 14 -27 17 -27 16 52 27 -64zm15 51l-58 -39c11,-16 33,-20 49,-9 16,11 20,32 9,48zm-141 -508l24 52 -16 28 -13 27 -10 26 -7 24 -6 23 -4 22 -1 21 0 19 1 18 3 18 4 16 5 16 6 14 7 14 8 13 9 13 9 11 9 11 10 10 10 9 10 9 10 7 9 7 9 7 9 5 8 5 6 3 6 4 5 2 3 2 3 0 0 1 -27 64 -2 -1 -3 -1 -4 -2 -7 -3 -7 -4 -9 -5 -9 -5 -10 -7 -11 -7 -12 -9 -12 -9 -12 -11 -12 -11 -12 -13 -12 -13 -12 -15 -11 -16 -10 -17 -9 -18 -8 -20 -7 -21 -6 -21 -3 -23 -2 -24 0 -25 2 -27 4 -27 7 -28 9 -29 12 -29 15 -31 17 -32 23 52 14 -69zm24 52l-61 -35c10,-17 31,-22 48,-13 17,10 22,31 13,48zm-97 -437l0 0 -9 11 -8 12 -7 12 -7 13 -6 14 -5 14 -4 15 -4 15 -2 15 -2 15 -2 16 0 15 0 16 1 16 2 15 2 15 4 15 3 15 5 14 5 13 6 13 7 12 7 12 8 10 8 10 9 9 9 8 10 7 10 6 10 5 12 4 11 3 -14 69 -18 -5 -18 -6 -16 -8 -16 -10 -15 -10 -13 -12 -13 -13 -11 -14 -11 -14 -10 -16 -8 -16 -8 -16 -7 -18 -6 -17 -4 -18 -4 -19 -4 -18 -2 -19 -1 -19 0 -19 0 -19 2 -19 2 -19 4 -19 4 -19 6 -18 6 -18 8 -17 8 -17 10 -17 11 -15 12 -15 0 0 53 45zm164 -16l1 1 -8 -4 -9 -3 -8 -3 -7 -3 -8 -2 -7 -2 -7 -1 -7 -2 -6 -1 -6 0 -6 -1 -6 0 -5 0 -6 1 -5 0 -4 1 -5 1 -5 1 -4 1 -4 2 -4 1 -4 2 -4 2 -4 2 -3 3 -4 2 -3 3 -3 3 -4 3 -3 3 -3 3 -3 3 -53 -45 4 -5 5 -6 5 -5 6 -4 5 -5 6 -4 6 -5 6 -3 7 -4 6 -4 7 -3 7 -3 7 -2 8 -2 8 -2 7 -2 8 -1 9 -1 8 -1 8 0 9 1 9 0 9 1 9 1 9 2 9 2 10 3 10 3 9 3 10 3 10 4 11 5 1 0 -31 63zm1 1l29 -64c17,8 25,28 17,46 -8,18 -28,26 -46,18zm48 403l-7 -43 14 -26 11 -25 10 -24 8 -22 6 -22 4 -20 3 -19 1 -18 0 -16 0 -16 -2 -15 -3 -14 -4 -13 -4 -12 -5 -11 -5 -11 -6 -10 -6 -9 -6 -8 -7 -8 -6 -7 -7 -7 -6 -5 -6 -5 -6 -5 -5 -4 -5 -3 -4 -2 -3 -2 -2 -1 -1 -1 0 0 31 -63 1 1 3 1 3 2 5 3 6 4 6 4 7 5 8 6 8 7 8 8 9 8 9 10 9 10 8 12 9 12 7 14 8 14 6 16 6 17 5 17 4 19 2 20 1 20 0 22 -2 22 -3 24 -5 24 -7 25 -9 27 -11 27 -14 28 -15 29 -7 -43 -47 52zm-7 -43l61 34c-9,17 -31,23 -47,14 -17,-10 -23,-31 -14,-48zm79 549l-9 -50 0 0 1 -2 2 -3 3 -5 4 -5 4 -7 4 -8 5 -10 5 -10 5 -11 5 -12 5 -13 4 -14 4 -15 4 -15 3 -16 2 -16 2 -17 0 -18 0 -18 -1 -19 -3 -18 -4 -20 -6 -19 -7 -20 -9 -20 -10 -20 -13 -21 -14 -21 -17 -21 -19 -21 -22 -21 47 -52 25 24 22 25 20 24 17 25 15 24 13 25 10 24 9 25 7 24 5 23 3 24 2 22 0 22 0 22 -2 21 -3 20 -4 19 -4 18 -5 17 -5 17 -6 15 -6 14 -5 14 -6 12 -6 11 -5 9 -5 9 -4 7 -4 5 -3 4 -2 3 -1 2 -9 -51 -38 59zm-9 -50l56 42c-11,15 -33,18 -49,7 -15,-12 -18,-34 -7,-49zm75 443l-10 -49 0 0 1 -2 1 -2 3 -5 3 -5 3 -6 4 -7 3 -9 4 -9 4 -10 4 -10 4 -11 4 -12 3 -13 3 -12 2 -13 1 -14 1 -14 1 -13 -1 -14 -2 -14 -2 -14 -4 -14 -4 -14 -6 -14 -7 -13 -9 -14 -10 -14 -12 -13 -14 -13 -16 -13 -18 -13 38 -59 22 16 20 16 18 17 16 18 13 18 12 18 10 19 8 19 7 19 4 19 4 19 2 18 1 19 -1 17 -1 18 -2 17 -3 16 -3 16 -4 15 -4 14 -5 13 -4 13 -5 11 -5 11 -4 10 -5 9 -4 7 -3 7 -3 5 -2 4 -2 2 -1 1 -10 -48 -38 59zm-10 -49l58 38c-10,17 -32,21 -48,11 -16,-11 -21,-33 -10,-49zm46 456l-7 -54 0 0 2 -2 2 -2 4 -5 4 -5 5 -6 5 -7 6 -9 6 -9 6 -10 7 -10 6 -12 6 -11 5 -13 5 -13 4 -13 4 -13 3 -14 2 -14 1 -14 -1 -14 -1 -13 -3 -15 -4 -14 -5 -14 -8 -14 -9 -14 -11 -15 -14 -14 -16 -15 -18 -15 -22 -14 38 -59 25 17 23 18 20 18 17 19 15 19 13 20 10 20 8 21 6 20 4 20 2 20 1 20 -2 19 -2 19 -4 18 -4 17 -6 17 -6 16 -7 15 -7 15 -7 13 -8 13 -7 11 -7 11 -7 10 -7 8 -5 8 -6 6 -4 5 -3 4 -2 2 -2 2 -7 -54 -36 59zm-7 -54l50 49c-13,14 -35,14 -49,1 -14,-13 -15,-36 -1,-50zm-1 384l0 -42 1 0 1 -2 2 -3 3 -4 3 -5 4 -6 4 -6 5 -8 5 -9 5 -9 5 -10 5 -10 5 -11 4 -11 5 -12 4 -11 3 -12 3 -12 2 -12 1 -12 1 -12 0 -11 -1 -12 -2 -11 -3 -10 -4 -10 -5 -10 -7 -10 -8 -9 -9 -10 -11 -9 -13 -9 36 -59 19 12 16 13 14 15 13 15 10 16 8 16 7 17 5 17 3 17 2 16 0 17 -1 17 -2 16 -3 16 -3 15 -5 15 -4 15 -5 13 -6 14 -6 13 -6 12 -5 11 -6 11 -6 9 -5 9 -5 8 -5 7 -4 6 -3 5 -2 3 -2 2 -1 1 0 -42 -56 42zm0 -42l56 42c-12,16 -34,19 -49,7 -15,-12 -18,-34 -7,-49zm-1 332l2 -49 6 -6 5 -6 5 -6 4 -6 4 -6 4 -7 3 -7 3 -7 2 -8 2 -7 2 -8 1 -8 1 -8 1 -8 0 -8 0 -9 0 -8 -1 -9 -1 -8 -1 -8 -2 -9 -2 -8 -2 -8 -3 -9 -3 -8 -3 -7 -4 -8 -4 -8 -4 -7 -4 -7 -5 -7 -5 -7 56 -42 7 9 6 9 6 10 5 9 5 10 5 11 4 10 4 10 3 11 4 11 2 11 3 11 1 11 2 11 1 11 0 12 0 11 0 11 -1 11 -1 12 -2 11 -3 11 -3 11 -4 11 -4 10 -5 11 -5 10 -6 10 -7 10 -7 9 -8 9 -9 9 2 -49 -52 47zm2 -49l48 51c-14,13 -36,12 -49,-2 -14,-14 -13,-36 1,-49z"/>
    </g>
    <path class="fil1 str6" d="M6069 5227c107,113 26,195 26,195 22,16 35,32 41,48 32,84 -105,153 -143,42 -13,-39 -4,-85 6,-87 0,0 -88,-49 -9,-189 0,0 -172,-30 -64,-286 -46,-86 -120,-247 23,-310 0,0 -284,-211 1,-383 0,0 -267,-111 -77,-366 0,0 -308,-126 -112,-430 -164,-35 -203,-293 -86,-417 41,-44 106,-64 206,-20 0,0 223,106 51,386 258,232 60,474 60,474 222,143 59,370 59,370 263,161 29,384 29,384 176,106 -3,319 -3,319 60,77 72,201 -8,270z"/>
   </g>
  </g>
 </g>
</svg>
